<?xml version="1.0" encoding="UTF-8" standalone="no"?>
<svg width="256px" height="256px" viewBox="0 0 256 256" version="1.1" xmlns="http://www.w3.org/2000/svg" xmlns:xlink="http://www.w3.org/1999/xlink" xmlns:sketch="http://www.bohemiancoding.com/sketch/ns">
    <title>default</title>
    <description>Created with Sketch (http://www.bohemiancoding.com/sketch)</description>
    <defs></defs>
    <g id="Page-1" stroke="none" stroke-width="1" fill="none" fill-rule="evenodd" sketch:type="MSPage">
        <g id="Imported-Layers" sketch:type="MSLayerGroup" transform="translate(3.000000, 31.000000)" fill="#000000">
            <path d="M0,163 C19.263,151.162 38.55,139.363 57.782,127.474 C80.568,113.389 103.305,99.225 126.069,85.105 C127.16,84.428 128.31,83.844 130.233,82.769 C130.233,90.527 130.443,97.606 130.06,104.653 C129.982,106.089 127.899,107.76 126.364,108.722 C103.945,122.764 81.462,136.705 58.993,150.67 C52.954,154.423 51.463,156.97 53.837,160.131 C57.615,165.162 61.194,161.589 64.595,159.478 C104.319,134.818 144.015,110.112 183.724,85.429 C185.077,84.588 186.494,83.85 188.698,82.602 C188.698,90.682 188.897,97.947 188.531,105.183 C188.457,106.645 186.494,108.394 184.983,109.343 C162.721,123.322 140.387,137.188 118.072,151.083 C116.941,151.787 115.162,152.294 114.837,153.275 C114.089,155.528 113.132,158.484 114.032,160.256 C114.693,161.559 118.313,162.173 120.338,161.755 C122.631,161.281 124.616,159.313 126.735,157.995 C165.873,133.654 205.012,109.313 244.152,84.975 C245.124,84.371 246.119,83.802 247.585,82.929 L247.585,219.299 L212.846,219.299 L212.846,164.149 C203.647,169.839 195.437,174.764 187.453,180.034 C186.358,180.757 185.987,183.187 185.969,184.834 C185.844,196.153 185.903,207.473 185.903,219.715 L179.428,219.715 C121.775,219.715 64.122,219.712 6.47,219.727 C4.313,219.728 2.157,219.905 0,220 L0,163 L87.0703125,313.097656" id="Fill-1" sketch:type="MSShapeGroup"></path>
            <path d="M70,0 L70,27 L0,27 L0,0 L70,0" id="Fill-2" sketch:type="MSShapeGroup"></path>
            <path d="M0,39 C21.3,39.095 42.6,39.19 63.9,39.283 C65.846,39.292 67.793,39.284 69.994,39.284 L69.994,66 L0,66 L0,39" id="Fill-3" sketch:type="MSShapeGroup"></path>
            <path d="M0,79 L69.96,79 L69.96,106 L0,106 L0,79" id="Fill-4" sketch:type="MSShapeGroup"></path>
            <path d="M0,118 L50.999,118 C51.107,118.402 51.215,118.803 51.323,119.205 C34.215,129.803 17.108,140.402 0,151 L0,118" id="Fill-5" sketch:type="MSShapeGroup"></path>
        </g>
    </g>
</svg>