<?xml version="1.0" standalone="no"?>
<!DOCTYPE svg PUBLIC "-//W3C//DTD SVG 1.1//EN" "http://www.w3.org/Graphics/SVG/1.1/DTD/svg11.dtd" >
<svg xmlns="http://www.w3.org/2000/svg">
<metadata>
This is a custom SVG webfont generated by Font Squirrel.
Copyright   : Copyright c 2007 by Jos Buivenga All rights reserved
Designer    : Jos Buivenga
Foundry     : Jos Buivenga
Foundry URL : httpwwwjosbuivengademonnl
</metadata>
<defs>
<font id="DiavloBold" horiz-adv-x="1478" >
<font-face units-per-em="2048" ascent="1536" descent="-512" />
<missing-glyph horiz-adv-x="573" />
<glyph unicode=" "  horiz-adv-x="573" />
<glyph unicode="&#x09;" horiz-adv-x="573" />
<glyph unicode="&#xa0;" horiz-adv-x="573" />
<glyph unicode="!" horiz-adv-x="593" d="M205 514v971q10 0 28.5 -1t64.5 -8.5t81 -19.5t63.5 -39.5t28.5 -64.5v-971h-29q-18 0 -64 7t-81 19.5t-63.5 40t-28.5 66.5zM215 63v193h168q31 0 55.5 -19.5t24.5 -43.5v-193h-166q-33 0 -57.5 18t-24.5 45z" />
<glyph unicode="&#x22;" horiz-adv-x="901" d="M84 1057q8 2 18.5 8t29 49t18.5 113v237h108q125 0 125 -133v-65q0 -270 -176 -271q-37 0 -67.5 15.5t-43.5 29.5zM483 1057q8 2 18.5 8t29 49t18.5 113v237h108q125 0 125 -133v-65q0 -270 -176 -271q-37 0 -67.5 15.5t-42.5 29.5z" />
<glyph unicode="#" horiz-adv-x="1423" d="M37 424q0 150 123 149h121q8 35 28.5 124t34.5 151h-184q-6 25 -6 59q0 150 122 150h117q76 303 109 440q66 0 150.5 -56.5t70.5 -119.5l-64 -264h265q76 303 108 440q70 0 154 -56.5t67 -121.5l-63 -262h190q6 -29 6 -64q0 -145 -120 -145h-127q-8 -35 -28.5 -124 t-35.5 -151h189q6 -29 6 -63q0 -145 -121 -145h-125l-92 -390q-68 0 -152 53.5t-69 118.5l51 218h-268l-93 -390q-70 0 -152.5 53.5t-68.5 121.5l51 215h-188q-6 24 -6 59zM545 573h266q8 35 28.5 124t34.5 151h-266z" />
<glyph unicode="$" horiz-adv-x="1318" d="M78 1055q0 408 500 432v160q2 -2 14 0t31.5 -3.5t38 -14.5t32 -34.5t13.5 -60.5v-47q213 -6 324.5 -63.5t111.5 -188.5q0 -84 -68 -207q0 236 -368 246v-387q88 -12 146 -26.5t129 -46.5t112 -77t69.5 -123.5t28.5 -183.5q0 -207 -126 -320.5t-359 -129.5v-189h-15 q-8 0 -30.5 6t-39 15.5t-30.5 33t-14 54.5v80q-203 6 -335 67.5t-132 185.5q0 84 73 191q0 -219 394 -236v453q-94 14 -148.5 26.5t-131.5 42t-118 69.5t-71.5 111t-30.5 165zM360 1085q0 -80 53.5 -118.5t164.5 -59.5v367q-218 -19 -218 -189zM707 193q115 12 157.5 65 t42.5 154q0 94 -47 138t-153 66v-423z" />
<glyph unicode="%" horiz-adv-x="1658" d="M70 1032v234q0 100 90 158.5t241.5 58.5t241.5 -58.5t90 -158.5v-234q0 -102 -89 -156.5t-242.5 -54.5t-242.5 54.5t-89 156.5zM283 297q0 43 34 78l949 948q106 -106 106 -168q0 -41 -37 -78l-948 -948q-104 100 -104 168zM293 1085q0 -49 21.5 -71.5t86.5 -22.5 q63 0 86 22.5t23 71.5v134q0 47 -22.5 70.5t-86 23.5t-86 -23.5t-22.5 -70.5v-134zM926 190v234q0 100 90 158.5t241.5 58.5t241.5 -58.5t90 -158.5v-234q0 -102 -89 -156t-242.5 -54t-242.5 54t-89 156zM1149 244q0 -49 21.5 -71.5t86.5 -22.5q63 0 86 22.5t23 71.5v133 q0 47 -22.5 70.5t-86 23.5t-86 -23.5t-22.5 -70.5v-133z" />
<glyph unicode="&#x26;" horiz-adv-x="1255" d="M113 383v61q0 104 55 195.5t151 118.5q-86 25 -136 106.5t-50 182.5v51q0 180 148.5 285.5t386.5 105.5q324 0 450.5 -148.5t-47.5 -336.5q0 80 -36 135t-97 83.5t-128 41t-142 12.5q-129 0 -194.5 -56.5t-65.5 -152.5q0 -117 44 -168t150 -59v247q10 0 26.5 -1t57.5 -9 t73 -20.5t57.5 -40t25.5 -64.5v-114h213q0 -8 -1 -22.5t-9.5 -50.5t-23.5 -62.5t-46 -49t-74 -22.5h-59v-111l37 -172q-82 10 -140.5 34t-84 44t-39 58t-13.5 47v38v62h-8q-207 -25 -207 -217q0 -100 69.5 -163t211.5 -63q180 0 302 60.5t122 202.5q166 -188 39 -332 t-463 -144q-250 0 -402.5 112t-152.5 296z" />
<glyph unicode="'" horiz-adv-x="501" d="M84 1057q8 2 18.5 8t29 49t18.5 113v237h108q125 0 125 -133v-65q0 -270 -176 -271q-37 0 -67.5 15.5t-43.5 29.5z" />
<glyph unicode="(" horiz-adv-x="688" d="M82 540.5q0 268.5 59.5 503t155.5 371.5t203 137q51 0 93 -22.5t58 -42.5l17 -23q-154 -23 -235 -282.5t-81 -636.5q0 -383 81 -646.5t235 -285.5q-6 -10 -17.5 -24.5t-55.5 -39t-95 -24.5q-106 0 -202.5 138t-156 373.5t-59.5 504z" />
<glyph unicode=")" horiz-adv-x="688" d="M20 -387q154 23 235 286t81 646q0 377 -81 637t-235 282q6 10 17.5 24.5t55.5 39t95 24.5q106 0 202.5 -137t156 -371.5t59.5 -503t-59.5 -504t-155.5 -373.5t-203 -138q-51 0 -93 22.5t-58 42.5z" />
<glyph unicode="*" horiz-adv-x="858" d="M68 1239q0 51 37.5 88t119.5 37q39 0 115 -27q-35 119 -160 142q59 82 144 82q51 0 97 -49.5t60 -153.5q57 63 58 131q0 37 -15 78q6 0 17.5 -2t38 -11.5t47 -22.5t38 -40t17.5 -61q0 -92 -111 -185q27 -8 58 -8q84 0 145 76q16 -45 17 -103q0 -51 -38 -88t-120 -37 q-41 0 -117 27q39 -125 162 -141q-61 -82 -143 -82q-51 0 -95.5 47t-64.5 156q-57 -63 -58 -131q0 -33 17 -78q-18 2 -45 7t-71 40t-44 90q0 41 31 98q27 43 82 86q-31 6 -56 6q-86 0 -147 -75q-16 47 -16 104z" />
<glyph unicode="+" horiz-adv-x="1067" d="M124 492.5q1 35.5 11 63.5t38 50.5t73 22.5h157v262q10 2 26.5 5t59.5 4t77 -5t60.5 -31.5t26.5 -66.5v-168h283q2 -8 4 -22.5t1 -50.5t-9 -63.5t-37 -50t-74 -22.5h-168v-293q-10 -2 -26.5 -5t-59.5 -3t-76.5 6t-60.5 30.5t-27 65.5v199h-274q-2 8 -4 22.5t-1 50z" />
<glyph unicode="," horiz-adv-x="501" d="M53 -229q74 18 94.5 90.5t10.5 136.5l-45 258h67h107q88 0 88 -78v-153q0 -145 -42 -221t-151 -76q-76 0 -129 43z" />
<glyph unicode="-" horiz-adv-x="1005" d="M124 494.5q1 33.5 9 59.5t32.5 47.5t65.5 21.5h643q2 -8 4.5 -21.5t2.5 -47.5t-8.5 -59.5t-33 -47t-65.5 -21.5h-645q-2 8 -4 21.5t-1 47z" />
<glyph unicode="." horiz-adv-x="501" d="M127 63v193h168q31 0 55.5 -19.5t24.5 -43.5v-193h-166q-33 0 -57.5 18t-24.5 45z" />
<glyph unicode="/" horiz-adv-x="681" d="M18 -328l439 1897l25 -5q15 -3 55.5 -17.5t69 -32t48 -47t11.5 -64.5l-439 -1895l-25 6q-15 3 -55.5 17t-69 30.5t-48 46t-11.5 64.5z" />
<glyph unicode="0" horiz-adv-x="1355" d="M123 377v710q0 197 149.5 299.5t405.5 102.5t405.5 -102.5t149.5 -299.5v-710q0 -197 -149.5 -299.5t-405.5 -102.5t-405.5 102.5t-149.5 299.5zM397 408q0 -121 66.5 -175.5t214 -54.5t214 54.5t66.5 175.5v649q0 121 -66.5 175t-214 54t-214 -54t-66.5 -175v-649z" />
<glyph unicode="1" horiz-adv-x="1134" d="M72 1274q0 84 75.5 137t223.5 53q86 0 189.5 7.5t164.5 15.5l61 6q-27 -147 -26 -231v-1049h348q6 -29 6 -63q0 -150 -121 -150h-858q-6 27 -6 59q0 154 125 154h238v1040q-29 -4 -67 0t-79 -3t-74.5 -19t-55 -50t-21.5 -98q0 -27 2 -41q-125 115 -125 232z" />
<glyph unicode="2" horiz-adv-x="1261" d="M92 0v211q0 102 43 183t112.5 132.5t153.5 94.5t167 79.5t153 77.5t113 101.5t43 136.5v35q0 100 -67 162.5t-194 62.5q-76 0 -142 -12.5t-127.5 -41t-97.5 -84t-36 -134.5q-174 188 -47 336.5t450 148.5q236 0 385.5 -109.5t149.5 -292.5v-81q0 -106 -44 -189.5 t-113.5 -135.5t-153.5 -95t-168 -78t-153.5 -71t-114 -87t-44.5 -117v-20h623q59 0 108.5 10t67.5 23l21 10q0 -10 -1 -27.5t-10.5 -61.5t-26 -78t-52 -61.5t-84.5 -27.5h-914z" />
<glyph unicode="3" horiz-adv-x="1284" d="M156 113.5q-127 138.5 47 357.5q0 -80 36.5 -137.5t99 -88t133.5 -44t155 -13.5q141 0 210.5 62.5t69.5 163.5q0 213 -207 237q-25 4 -40 9.5t-39.5 25t-36 63.5t-6.5 109h65q133 0 188.5 48t55.5 161q0 96 -65.5 152.5t-194.5 56.5q-76 0 -142.5 -12.5t-128 -41 t-97.5 -84t-36 -134.5q-174 188 -47 336.5t451 148.5q238 0 386 -105.5t148 -285.5v-51q0 -100 -50 -182.5t-136 -106.5q96 -27 151.5 -118t55.5 -196v-61q0 -184 -152.5 -296t-402.5 -112q-344 0 -471 138.5z" />
<glyph unicode="4" horiz-adv-x="1191" d="M10 387q8 135 110.5 324.5t237 355.5t234.5 275.5t141 146.5q10 0 26.5 -1t59.5 -9.5t77 -20.5t60.5 -39.5t26.5 -62.5v-770h178q0 -14 -4 -38t-16.5 -65t-47 -68.5t-85.5 -27.5h-25v-407q-23 0 -53.5 3t-88 13t-95 41t-37.5 76v274h-699zM328 586h381v458l10 113 q-47 -74 -68 -96q-237 -274 -323 -475z" />
<glyph unicode="5" horiz-adv-x="1222" d="M115 113.5q-127 138.5 47 357.5q0 -80 37 -137.5t99 -88t133 -44t155 -13.5q150 0 215 50.5t65 171.5v118q0 236 -280 236h-260l-191 -6q16 80 17 176v338q0 8 1 20.5t9 46t22.5 59t46 46t74.5 20.5h563q145 0 197 29q0 -10 -1 -26.5t-10.5 -57.5t-25.5 -72.5t-52 -58.5 t-85 -27h-465v-194l-8 -90h164q264 0 411.5 -100.5t147.5 -311.5v-172q0 -197 -149.5 -302.5t-405.5 -105.5q-344 0 -471 138.5z" />
<glyph unicode="6" horiz-adv-x="1345" d="M123 377v710q0 197 149.5 299.5t405.5 102.5q348 0 474 -138.5t-50 -351.5q4 104 -57.5 169t-151.5 86.5t-215 21.5q-150 0 -215.5 -50t-65.5 -169v-109l-10 -104q10 10 30.5 24.5t101.5 38t179 23.5q242 0 388.5 -103.5t146.5 -298.5v-151q0 -197 -149.5 -299.5 t-405.5 -102.5t-405.5 102.5t-149.5 299.5zM397 408q0 -121 66.5 -175.5t214 -54.5t214 54.5t66.5 175.5v90q0 121 -63.5 175t-196.5 54q-293 0 -301 -217v-102z" />
<glyph unicode="7" horiz-adv-x="1171" d="M0 1223q0 10 1 26.5t10 57.5t25.5 72.5t52.5 58t85 26.5h985q4 -139 -31.5 -268t-97 -228.5t-135.5 -193.5t-149.5 -182t-139 -175t-106.5 -190.5t-47 -212.5q-66 -35 -115 -34q-154 0 -154 106q0 121 58.5 243t147.5 228.5t182.5 210.5t175 232t114.5 251h-665 q-146 1 -197 -28z" />
<glyph unicode="8" horiz-adv-x="1355" d="M123 377v57q0 106 53 191.5t148 117.5q-78 33 -129.5 118t-51.5 181v45q0 195 146.5 298.5t388.5 103.5t388 -103.5t146 -298.5v-45q0 -96 -51 -181t-129 -118q94 -33 147.5 -117.5t53.5 -191.5v-51q0 -197 -149.5 -302.5t-405.5 -105.5t-405.5 102.5t-149.5 299.5z M397 401q0 -121 65.5 -172t215.5 -51q147 0 213.5 53.5t66.5 176t-66.5 178t-214 55.5t-214 -56.5t-66.5 -183.5zM418 1065q0 -119 55 -170t189 -51h32q133 0 188.5 51t55.5 170t-62.5 170t-197.5 51t-197.5 -51t-62.5 -170z" />
<glyph unicode="9" horiz-adv-x="1345" d="M113 936v151q0 197 149.5 299.5t405.5 102.5t405.5 -102.5t149.5 -299.5v-710q0 -197 -149.5 -299.5t-405.5 -102.5q-348 0 -474 139.5t50 350.5q-4 -104 57 -169t151.5 -86.5t215.5 -21.5q150 0 215 50.5t65 169.5v108l10 105q-10 -10 -30.5 -24.5t-101.5 -38 t-179 -23.5q-242 0 -388 103t-146 298zM387 967q0 -121 63.5 -175.5t196.5 -54.5q293 0 301 217v103q0 121 -66.5 175t-214 54t-214 -54t-66.5 -175v-90z" />
<glyph unicode=":" horiz-adv-x="501" d="M158 63v193h168q31 0 55.5 -19.5t24.5 -43.5v-193h-166q-33 0 -57.5 18t-24.5 45zM158 762v192h168q31 0 55.5 -19.5t24.5 -43.5v-193h-166q-33 0 -57.5 18.5t-24.5 45.5z" />
<glyph unicode=";" horiz-adv-x="501" d="M84 -229q74 18 94.5 90.5t9.5 136.5l-45 258h68h106q88 0 89 -78v-153q0 -145 -42 -221t-151 -76q-76 0 -129 43zM158 762v192h168q31 0 55.5 -19.5t24.5 -43.5v-193h-166q-33 0 -57.5 18.5t-24.5 45.5z" />
<glyph unicode="&#x3c;" horiz-adv-x="874" d="M162 408q-115 115 2 231l411 412q190 -117 95 -213l-314 -316l375 -375q-33 -66 -102.5 -95t-130.5 20z" />
<glyph unicode="=" horiz-adv-x="1030" d="M133 254q-23 72 7 134.5t106 62.5h655q33 -197 -113 -197h-655zM133 610q-23 72 7 134.5t106 62.5h655q33 -197 -113 -197h-655z" />
<glyph unicode="&#x3e;" horiz-adv-x="874" d="M143 147l375 375l-313 316q-96 96 94 213l412 -412q117 -117 2 -231l-336 -336q-61 -49 -131 -20t-103 95z" />
<glyph unicode="?" horiz-adv-x="1136" d="M128 1207q-19 79 20.5 141.5t142 101.5t250.5 39q240 0 387 -99.5t147 -281.5v-51q0 -80 -34.5 -146.5t-87 -108.5t-114 -84t-113.5 -74t-87 -78t-35 -99v-98q-10 0 -27.5 1t-62.5 8t-79 20.5t-61.5 42t-27.5 67.5v33q0 70 47 128t113.5 101t133.5 84t114 96.5t47 120.5 q0 96 -65.5 150.5t-194.5 54.5q-133 0 -221.5 -55.5t-88.5 -169.5q-84 77 -103 156zM350 63v193h168q31 0 55.5 -19.5t24.5 -43.5v-193h-166q-33 0 -57.5 18t-24.5 45z" />
<glyph unicode="@" horiz-adv-x="1890" d="M123 199v651q0 233 181 386t489 153h305q305 0 487 -154t182 -385v-367q0 -508 -731 -508q-154 0 -268.5 28t-193 105.5t-78.5 198.5q0 100 48 164t123.5 92.5t155.5 47t159 47t116 73.5q0 74 -32 108.5t-134 34.5q-264 0 -293 -210q-92 100 -92 190q0 102 112.5 163.5 t272.5 61.5q215 0 323.5 -94t108.5 -266v-246q0 -27 -7 -52.5t-33 -68.5t-92.5 -74.5t-166.5 -44.5q39 61 39 191v102q-18 -37 -78.5 -56t-120 -27.5t-106.5 -40t-47 -91.5q0 -70 80.5 -109.5t209.5 -39.5q217 0 338 75.5t121 272.5v313q0 162 -99 266.5t-306 104.5h-305 q-205 0 -303.5 -104.5t-98.5 -266.5v-598q0 -154 64.5 -257t175.5 -103l159 33q0 -8 -3 -21.5t-19 -47.5t-43 -60.5t-81 -48t-124 -21.5q-172 0 -283.5 147.5t-111.5 352.5z" />
<glyph unicode="A" horiz-adv-x="1396" d="M0 8q37 55 127 338l174 539q47 145 113.5 269t128 197.5t98.5 109.5t57 50q20 -14 57.5 -50t98.5 -109.5t128 -197.5t114 -269l174 -539q90 -283 127 -338q-68 -23 -115 -22q-66 0 -114 23.5t-80.5 74.5t-49 90t-41.5 113l-6 18l-35 109h-516l-34 -109 q-57 -172 -101 -229q-70 -90 -190 -90zM500 618h397l-63 213q-23 76 -57 163t-56 136l-23 48q-59 -94 -135 -347z" />
<glyph unicode="B" horiz-adv-x="1273" d="M143 133v1331h473q535 0 535 -372v-52q0 -96 -45 -181t-115 -118q80 -35 130 -122t50 -187v-51q0 -195 -147 -288t-408 -93h-251q-8 0 -23.5 1t-53.5 8t-68 19.5t-53.5 40t-23.5 64.5zM418 203h198q150 0 215.5 48t65.5 161q0 227 -264 227h-215v-436zM418 842h215 q131 0 187.5 56t56.5 173q0 109 -60.5 150t-200.5 41h-198v-420z" />
<glyph unicode="C" horiz-adv-x="1413" d="M123 479v506q0 260 177 382t450 122q106 0 202.5 -14.5t179 -48t131 -85t48.5 -131.5t-60 -178q-35 129 -180 186.5t-321 57.5q-352 0 -353 -320v-446q0 -324 353 -324q426 0 501 246q52 -100 52 -177q0 -17 -3 -33q-14 -87 -101 -142t-200.5 -80t-248.5 -25 q-272 0 -449.5 122t-177.5 382z" />
<glyph unicode="D" horiz-adv-x="1497" d="M143 133v1331h594q131 0 238.5 -24.5t201 -78.5t145.5 -155.5t52 -244.5v-457q0 -143 -52 -244.5t-145.5 -156t-201 -79t-238.5 -24.5h-375q-18 0 -44.5 3t-70.5 14.5t-74 42t-30 73.5zM418 203h319q362 0 363 321v418q0 319 -363 320h-319v-1059z" />
<glyph unicode="E" horiz-adv-x="1220" d="M143 133v1331h1006q0 -8 -1 -21t-9.5 -49t-22.5 -62.5t-46 -48t-75 -21.5h-577v-379h422q78 0 135 8t74 16l18 8q0 -236 -195 -235h-454v-477h731q0 -16 -4 -39t-16.5 -66t-47 -70.5t-86.5 -27.5h-628q-8 0 -23.5 1t-54.5 8t-67.5 19.5t-53.5 40t-25 64.5z" />
<glyph unicode="F" horiz-adv-x="1071" d="M143 113v1351h944q0 -8 -1 -21t-9 -49t-22.5 -62.5t-46 -48t-74.5 -21.5h-516v-379h340l227 22q0 -100 -40 -162.5t-154 -62.5h-373v-700q-10 0 -29.5 1t-67 8t-83 19t-65.5 40t-30 65z" />
<glyph unicode="G" d="M123 479v506q0 178 88 295t221 163t307 46q147 0 271.5 -25.5t212.5 -91t88 -162.5q0 -82 -64 -180q-25 90 -109.5 147.5t-184 78t-214.5 20.5q-342 0 -342 -320v-446q0 -322 342 -322q172 0 257 60.5t85 240.5v66h-235q-170 0 -170 229q55 -27 205 -26h475v-299 q0 -131 -49.5 -228.5t-137.5 -151.5t-194.5 -79t-235.5 -25q-174 0 -307 46.5t-221 163t-88 294.5z" />
<glyph unicode="H" horiz-adv-x="1505" d="M143 113v1372q10 0 30 -1t67 -8.5t82.5 -19.5t65.5 -39.5t30 -64.5v-508h669v641q10 0 30 -1t67 -8.5t83 -19.5t65.5 -39.5t29.5 -64.5v-1372q-10 0 -29.5 1t-66.5 8t-83 19t-66 40t-30 65v526h-669v-659q-10 0 -29.5 1t-67 8t-83 19t-65.5 40t-30 65z" />
<glyph unicode="I" horiz-adv-x="561" d="M143 113v1372q10 0 30 -1t67 -8.5t82.5 -19.5t65.5 -39.5t30 -64.5v-1372q-10 0 -29.5 1t-67 8t-83 19t-65.5 40t-30 65z" />
<glyph unicode="J" horiz-adv-x="604" d="M-14 -311q70 0 118 56t65 122.5t17 134.5v1483q23 0 50.5 -3t88 -13.5t98.5 -42t38 -78.5v-1416q0 -143 -68.5 -241.5t-183.5 -98.5q-119 1 -223 97z" />
<glyph unicode="K" horiz-adv-x="1318" d="M143 113v1372q10 0 30 -1t67 -8.5t82.5 -19.5t65.5 -39.5t30 -64.5v-478q147 31 258.5 148t232.5 334q74 133 236 133l125 -19q-35 -55 -114 -193t-127 -214t-134 -161t-180 -122q256 -72 499 -569q78 -150 117 -207q-82 -20 -125 -20q-180 0 -254 133q-12 23 -53 99.5 t-59.5 106t-59.5 94t-72.5 95.5t-78.5 73t-99.5 64.5t-111.5 34.5v-704q-10 0 -29.5 1t-67 8t-83 19t-65.5 40t-30 65z" />
<glyph unicode="L" horiz-adv-x="1114" d="M143 133v1352q10 0 30 -1t67 -8.5t82.5 -19.5t65.5 -39.5t30 -64.5v-1149h456q78 0 134.5 8t74.5 16l19 9q0 -236 -154 -236h-581q-8 0 -23.5 1t-54.5 8t-67.5 19.5t-53.5 40t-25 64.5z" />
<glyph unicode="M" horiz-adv-x="1705" d="M143 113v1351h176q141 0 197 -121l334 -714q66 137 201 417.5t200 417.5q311 0 312 -133v-1351q-10 0 -30 1t-67 8t-82.5 19t-65.5 40t-30 65v692l21 211l-373 -760q-6 0 -18.5 1t-45 8t-62.5 19.5t-64.5 39t-57.5 63.5l-289 617q18 -104 19 -199v-825q-10 0 -29.5 1 t-67 8t-83 19t-65.5 40t-30 65z" />
<glyph unicode="N" horiz-adv-x="1507" d="M143 113v1351q106 0 158.5 -4t116 -30.5t96.5 -81.5l600 -940q-25 117 -24 217v839q10 0 29.5 -1t66.5 -8t83 -19.5t65.5 -40t29.5 -64.5v-1351q-86 0 -156.5 15t-108.5 36.5t-64.5 43t-35.5 36.5l-8 16l-596 946q23 -117 23 -217v-876q-10 0 -29.5 1t-67 8t-83 19 t-65.5 40t-30 65z" />
<glyph unicode="O" d="M123 461v543q0 233 153.5 359t463 126t463 -126t153.5 -359v-543q0 -233 -153.5 -359.5t-463 -126.5t-463 126.5t-153.5 359.5zM397 487q0 -160 70 -234.5t270 -74.5q203 0 273.5 75t70.5 234v490q0 160 -70.5 234.5t-273.5 74.5q-201 0 -270.5 -74.5t-69.5 -234.5v-490z " />
<glyph unicode="P" horiz-adv-x="1251" d="M143 113v1351h412q104 0 190 -11t168 -44t136.5 -85t88 -137t33.5 -200v-37q0 -481 -616 -481h-137v-489q-10 0 -29.5 1t-67 8t-83 19t-65.5 40t-30 65zM418 672h137q172 0 257 58t85 239q0 168 -87 230.5t-255 62.5h-137v-590z" />
<glyph unicode="Q" d="M123 461v543q0 233 153.5 359t463 126t463 -126t153.5 -359v-543q0 -205 -129 -330t-377 -149v-31q0 -98 87 -152.5t204 -54.5q68 0 116 5t106 21.5t97 55.5t56 98q35 -72 34 -137q0 -121 -114.5 -188.5t-296.5 -67.5q-211 0 -367 103.5t-156 285.5v64 q-246 25 -369.5 147.5t-123.5 329.5zM397 487q0 -160 70 -234.5t270 -74.5q203 0 273.5 75t70.5 234v490q0 160 -70.5 234.5t-273.5 74.5q-201 0 -270.5 -74.5t-69.5 -234.5v-490z" />
<glyph unicode="R" horiz-adv-x="1249" d="M143 113v1351h473q535 0 535 -370v-62q0 -166 -103.5 -271.5t-267.5 -105.5q86 -51 161 -139t118 -168t98 -185.5t92 -158.5q-82 -20 -125 -20q-174 0 -243 133q-8 14 -45 85.5t-50.5 95.5t-49.5 82t-62.5 85t-67.5 65.5t-88 62t-100 38.5v-651q-10 0 -29.5 1t-67 9 t-83 20.5t-65.5 39t-30 63.5zM418 838h215q131 0 187.5 55t56.5 170q0 111 -61.5 155t-199.5 44h-198v-424z" />
<glyph unicode="S" horiz-adv-x="1339" d="M82 1055q0 434 588 434q539 0 538 -254q0 -84 -67 -207q0 248 -469 248q-307 0 -307 -191q0 -59 37.5 -98t101 -55.5t143.5 -31.5t164 -25.5t164 -41t143.5 -74.5t101 -128t37.5 -201q0 -219 -164.5 -336t-437.5 -117q-102 0 -193 13.5t-172 42t-128 80t-47 120.5 q0 84 73 191q0 -236 467 -236q158 0 238 58.5t80 165.5q0 76 -49.5 123t-128 67.5t-173 34.5t-189.5 36.5t-174 60.5t-128 120t-49 201z" />
<glyph unicode="T" horiz-adv-x="1181" d="M4 1497q72 -33 227 -33h719q70 0 126.5 8.5t78.5 16.5l23 8q0 -236 -195 -235h-258v-1282q-10 0 -29.5 1t-66.5 8t-83 19t-65.5 40t-29.5 65v1149h-252q-195 -1 -195 235z" />
<glyph unicode="U" d="M123 438v1047q10 0 29.5 -1t66.5 -8.5t83 -19.5t65.5 -39.5t29.5 -64.5v-883q0 -135 93.5 -208t249 -73t248.5 73t93 208v1016q10 0 29.5 -1t67 -8.5t83 -19.5t65.5 -39.5t30 -64.5v-914q0 -221 -177.5 -342t-439.5 -121t-439 121t-177 342z" />
<glyph unicode="V" horiz-adv-x="1458" d="M10 1454q68 23 115 23q66 0 114 -23.5t80.5 -75t49 -90.5t41.5 -112l6 -19l178 -526q57 -172 135 -318q61 96 135 318l178 526q57 172 101 229q70 90 190 91l115 -23q-37 -55 -127 -338l-180 -538q-49 -145 -118 -269.5t-132.5 -198t-101 -109.5t-60.5 -50 q-23 14 -60.5 50t-101 109.5t-132 197.5t-118.5 270l-180 538q-90 283 -127 338z" />
<glyph unicode="W" horiz-adv-x="2109" d="M10 1454q68 23 113 23q66 0 113 -23.5t77.5 -71t49 -90.5t38.5 -108l9 -27l176 -526q25 -76 60.5 -156t58.5 -123l24 -41q111 119 207 367q-74 295 -74 504q0 127 71 194.5t206 67.5q-12 -104 -13 -203q0 -446 207 -848l45 -82q86 145 142 320l176 526q57 170 96 225 q70 94 190 95l115 -23q-14 -23 -30.5 -61.5t-27.5 -69.5t-35 -102.5t-34 -104.5l-180 -538q-39 -117 -96.5 -225.5t-110.5 -178.5t-100 -123t-76 -76l-29 -24q-8 6 -22.5 18.5t-56.5 55.5t-79.5 91t-85 121.5t-81.5 151.5q-111 -256 -305 -422l-21 -16q-10 8 -29.5 24.5 t-74 75t-102.5 125t-106.5 175t-97.5 227.5l-180 538l-28 86l-28 83q-9 28 -22.5 66t-25 61.5t-23.5 41.5z" />
<glyph unicode="X" horiz-adv-x="1290" d="M4 -2q55 86 134 238.5t155 274.5t166 214q-121 143 -266.5 409.5t-182.5 321.5q74 18 125 19q162 0 232 -134q78 -145 109.5 -202.5t79.5 -133t89 -122.5q41 47 89 122.5t80 133t110 202.5q70 133 231 134l125 -19q-37 -55 -182.5 -321.5t-266.5 -409.5q90 -92 166 -214 t155 -274.5t134 -238.5q-74 -18 -125 -18q-160 0 -231 133q-147 279 -285 456q-129 -160 -285 -456q-72 -133 -231 -133z" />
<glyph unicode="Y" horiz-adv-x="1277" d="M4 1458q74 18 125 19q166 0 231 -134l95 -190q129 -264 184 -334q23 29 47.5 72t39.5 73.5t47 93t44 87.5l101 198q68 133 231 134q18 0 50 -5.5t54 -9.5l21 -6q-57 -94 -141 -273t-168 -322.5t-189 -250.5v-630q-10 0 -29.5 1t-66.5 8t-83 19t-65.5 40t-29.5 65v497 q-109 109 -191 253.5t-160.5 317.5t-146.5 277z" />
<glyph unicode="Z" horiz-adv-x="1214" d="M57 0q-2 24 -1 47q0 132 49 248q58 137 159 247.5t208.5 213t210.5 235.5t153 271h-750q0 8 1 21t9 49t22.5 62.5t47.5 48t76 21.5h907q0 -168 -75 -334.5t-184.5 -297t-221 -244t-198.5 -216t-101 -171.5h598q78 0 134 8t75 16l16 11q-14 -236 -152 -236h-983z" />
<glyph unicode="[" horiz-adv-x="638" d="M143 -92v1556h475q0 -8 -1 -20t-9 -45t-22.5 -57.5t-46 -45t-74.5 -20.5h-78v-1313h78q43 0 73.5 -19.5t46 -44t23.5 -56t9 -46t1 -22.5h-272q-8 0 -21.5 1t-49 8t-62.5 19.5t-48.5 40t-21.5 64.5z" />
<glyph unicode="\" horiz-adv-x="743" d="M-25 1542q242 80 283 -57l559 -1925q-244 -80 -280 53z" />
<glyph unicode="]" horiz-adv-x="638" d="M20 -225q0 8 1.5 22.5t9.5 46t23.5 56t46 44t73.5 19.5h78v1313h-78q-68 0 -106.5 47t-42.5 94l-5 47h476v-1556q0 -109 -164 -131l-39 -2h-273z" />
<glyph unicode="^" horiz-adv-x="1157" d="M41 985l428 428q59 59 135 61.5t137 -59.5l334 -334q100 -100 -100 -227l-369 369l-321 -320q-41 -39 -88 -31.5t-88 39t-68 74.5z" />
<glyph unicode="_" horiz-adv-x="1218" d="M0 -160q0 131 127 131h1083q8 -45 9 -80q0 -129 -127 -129h-1084q-8 41 -8 78z" />
<glyph unicode="`" horiz-adv-x="1001" d="M319.5 1405q-18.5 72 27.5 128t145 69q-25 -43 0.5 -88.5t103.5 -122.5l68 -68q72 -72 -78 -125l-47 -14l-121 90q-80 59 -98.5 131z" />
<glyph unicode="a" horiz-adv-x="1093" d="M86 297q0 106 57.5 176t142.5 100.5t173 50t162.5 47t97.5 70.5q0 139 -199 140q-143 0 -235 -55.5t-92 -176.5q-78 104 -78 199q0 84 69.5 138t155.5 73.5t182 19.5q225 0 343 -91t118 -259v-749q-66 33 -158 32q-49 0 -155.5 -18.5t-165.5 -18.5q-115 0 -204 28 t-151.5 103.5t-62.5 190.5zM350 301q0 -139 185 -139q109 0 190 37v333q-14 -35 -77.5 -56t-128 -31.5t-117 -46.5t-52.5 -97z" />
<glyph unicode="b" horiz-adv-x="1148" d="M123 49v1512q25 0 52.5 -3.5t84.5 -14.5t93 -47t36 -89v-289q0 -23 -4 -52.5t-8 -47.5l-4 -19q10 8 30.5 21.5t89 36t144.5 22.5q170 0 290 -97t120 -257v-393q0 -172 -124 -264.5t-358 -92.5q-90 0 -228 36t-214 38zM389 203q72 -33 172 -33q123 0 171 46t48 146v332 q0 96 -46 143.5t-124 47.5q-86 0 -153.5 -49.5t-67.5 -120.5v-512z" />
<glyph unicode="c" horiz-adv-x="1042" d="M102 336v383q0 168 122 264t341 96q90 0 173 -19.5t149.5 -75.5t66.5 -140q0 -88 -80 -203q0 117 -77.5 177.5t-184.5 60.5q-121 0 -183 -46.5t-62 -166.5v-277q0 -111 58 -161t181 -50q133 0 221 59.5t91 149.5q63 -94 63 -168q0 -111 -113.5 -177.5t-292.5 -66.5 q-219 0 -346 95.5t-127 265.5z" />
<glyph unicode="d" horiz-adv-x="1148" d="M102 332v393q0 160 120 257t290 97q76 0 141.5 -19.5t94.5 -39.5l28 -21q-16 68 -16 119v443q25 0 52.5 -3.5t84.5 -14.5t93 -47t36 -89v-1432q-70 35 -164 35q-57 0 -157.5 -17.5t-141.5 -17.5q-219 0 -340 93.5t-121 263.5zM369 362q0 -100 48 -146t171 -46l172 25v520 q0 72 -67.5 121t-153.5 49q-78 0 -124 -47t-46 -144v-332z" />
<glyph unicode="e" horiz-adv-x="1083" d="M102 336v383q0 170 118 265t335 95q213 0 322.5 -91t109.5 -249q0 -147 -100.5 -241.5t-325.5 -94.5q-100 0 -192 37v-73q0 -186 227 -187q152 0 246 58.5t96 150.5q63 -90 63 -168q0 -111 -113.5 -178.5t-291.5 -67.5q-233 0 -363.5 95.5t-130.5 265.5zM369 629 q92 -18 153 -19q199 0 199 129q0 145 -174 146q-100 0 -139 -48.5t-39 -148.5v-59z" />
<glyph unicode="f" horiz-adv-x="745" d="M125 119v1149q0 160 147.5 260t341.5 100q172 0 282 -55t110 -150q0 -76 -99 -155q0 76 -83 115.5t-199 39.5q-98 0 -167 -55t-69 -145v-217h367q0 -8 -1 -21.5t-9.5 -48.5t-22.5 -61.5t-46 -48t-73 -21.5h-215v-819q-10 0 -28.5 1t-63.5 8t-80 19.5t-63.5 40t-28.5 64.5 z" />
<glyph unicode="g" horiz-adv-x="1079" d="M70 193q0 57 26.5 105t83.5 116q-39 39 -62.5 106.5t-23.5 128.5v96q0 170 118 252t292 82q57 0 163.5 -21.5t155.5 -21.5q72 0 174 41v-428q0 -172 -116.5 -267t-333.5 -95q-68 0 -132.5 14t-95.5 29l-30 14q-12 -41 -13 -80q0 -63 58.5 -84.5t177.5 -21.5h68 q63 0 94 -1t89 -6.5t88 -15.5t71 -30.5t61.5 -51t35.5 -78t15 -108.5q0 -168 -121.5 -265.5t-365.5 -97.5q-207 0 -328 60.5t-121 163.5q0 82 70 172q23 -201 360 -201q246 0 246 154q0 66 -49 86t-152 20h-100q-92 0 -155.5 8t-125 30.5t-92 72t-30.5 123.5zM358 680 q0 -102 40 -150.5t148.5 -48.5t147.5 48.5t39 150.5v174q-92 35 -182 35q-104 0 -148.5 -40t-44.5 -134v-35z" />
<glyph unicode="h" horiz-adv-x="1169" d="M123 119v1442h35q14 0 63 -8.5t81 -22.5t59.5 -46t27.5 -77v-285l-16 -123q10 8 31.5 21.5t90 36t142.5 22.5q176 0 293 -91t117 -263v-739q-10 0 -29 1t-65 9t-80.5 20.5t-63.5 39t-29 63.5v575q0 96 -46 143.5t-124 47.5q-86 0 -153.5 -49.5t-67.5 -120.5v-729 q-10 0 -28.5 1t-64.5 8t-81 19.5t-63.5 40t-28.5 64.5z" />
<glyph unicode="i" horiz-adv-x="512" d="M123 119v950q20 0 50 -3t86 -13.5t93 -41t37 -75.5v-950q-10 0 -28.5 1t-64.5 8t-81 19.5t-63.5 40t-28.5 64.5zM129 1278v170h180q25 0 50.5 -19.5t25.5 -39.5v-170h-180q-31 0 -53.5 18t-22.5 41z" />
<glyph unicode="j" horiz-adv-x="512" d="M-68 -397q96 0 143.5 95t47.5 200v1171q10 0 28.5 -1t64.5 -8t81 -19.5t63.5 -40t28.5 -64.5v-1104q0 -135 -65.5 -228t-176.5 -93q-109 0 -215 92zM131 1278v170h180q25 0 50.5 -19.5t25.5 -39.5v-170h-180q-31 0 -53.5 18t-22.5 41z" />
<glyph unicode="k" horiz-adv-x="1085" d="M123 119v1446q10 0 28.5 -1t64.5 -8.5t81 -19.5t63.5 -40t28.5 -64v-746q86 12 146.5 76.5t134.5 206.5q53 100 196 100q68 0 146 -25q-31 -43 -96.5 -158.5t-127 -187t-143.5 -104.5q86 -31 149.5 -79t103.5 -110.5t65.5 -120t59.5 -138t62 -134.5q-111 -27 -151 -26 q-57 0 -96 23.5t-61.5 62.5t-42 87t-44 98t-58.5 95t-95.5 80t-147.5 49v-495q-10 0 -28.5 1t-64.5 8t-81 19.5t-63.5 40t-28.5 64.5z" />
<glyph unicode="l" horiz-adv-x="512" d="M113 307v1258q20 0 50 -3t86 -13.5t93 -41t37 -75.5v-1059q0 -59 3 -97t15.5 -93.5t44 -85t82.5 -29.5q-61 -82 -170 -82q-119 0 -180 91t-61 230z" />
<glyph unicode="m" horiz-adv-x="1826" d="M123 119v960q80 -43 184 -43q49 0 148.5 21.5t156.5 21.5q211 0 324 -88q10 10 32.5 24.5t112.5 39t205 24.5q180 0 299 -91t119 -263v-739q-10 0 -28.5 1t-64.5 9t-81 20.5t-63.5 39t-28.5 63.5v575q0 96 -46 143.5t-124 47.5q-88 0 -153.5 -38t-67.5 -106v-755 q-10 0 -29 1t-65 9t-80.5 20.5t-63.5 39t-29 63.5v592q0 84 -46 127t-150 43q-47 0 -95.5 -7.5t-74.5 -13.5l-25 -8v-866q-10 0 -28.5 1t-64.5 8t-81 19.5t-63.5 40t-28.5 64.5z" />
<glyph unicode="n" horiz-adv-x="1169" d="M123 119v960q80 -43 184 -43q49 0 148.5 21.5t156.5 21.5q184 0 309.5 -77.5t125.5 -260.5v-755q-10 0 -29 1t-65 9t-80.5 20.5t-63.5 39t-29 63.5v592q0 84 -46 127t-150 43q-47 0 -95.5 -7.5t-74.5 -13.5l-25 -8v-866q-10 0 -28.5 1t-64.5 8t-81 19.5t-63.5 40 t-28.5 64.5z" />
<glyph unicode="o" horiz-adv-x="1191" d="M102 336v383q0 172 123 266t371 94t371 -94t123 -266v-383q0 -172 -123 -266.5t-371 -94.5t-371 94.5t-123 266.5zM369 367q0 -102 47 -149.5t180 -47.5t180 47t47 150v321q0 102 -47 149.5t-180 47.5t-180 -47t-47 -150v-321z" />
<glyph unicode="p" horiz-adv-x="1148" d="M123 -352v1431q78 -39 164 -39q57 0 157.5 19.5t141.5 19.5q219 0 340 -93t121 -263v-393q0 -160 -120 -257.5t-290 -97.5q-76 0 -141.5 20.5t-94.5 41.5l-28 18q16 -68 16 -118v-443q-25 0 -52.5 3t-84.5 14.5t-93 47.5t-36 89zM389 340q0 -74 67.5 -122t153.5 -48 q78 0 124 47t46 143v332q0 100 -48 146.5t-171 46.5l-172 -25v-520z" />
<glyph unicode="q" horiz-adv-x="1148" d="M102 330v393q0 170 121 263t340 93q41 0 141.5 -19.5t157.5 -19.5q86 0 164 39v-1585q-25 0 -52.5 3t-85 14.5t-93 47t-35.5 89.5v289q0 23 4 52t8 48l4 18q-10 -8 -30.5 -21.5t-89 -36t-144.5 -22.5q-170 0 -290 97.5t-120 257.5zM369 360q0 -96 46 -143t124 -47 q86 0 153.5 48t67.5 122v520q-80 25 -172 25q-123 0 -171 -46t-48 -147v-332z" />
<glyph unicode="r" horiz-adv-x="856" d="M123 119v958q82 -41 158 -41q41 0 139 21.5t162 21.5q119 0 197.5 -47t78.5 -145q0 -35 -13.5 -71t-26.5 -57.5t-32.5 -46t-21.5 -26.5q0 92 -62.5 139t-158.5 47q-31 0 -154 -22v-864q-10 0 -28.5 1t-64.5 8t-81 19.5t-63.5 40t-28.5 64.5z" />
<glyph unicode="s" horiz-adv-x="1046" d="M61 739q0 168 116 254t337 86q190 0 303 -53t113 -154q0 -86 -78 -184q0 90 -90 139.5t-227 49.5q-211 0 -211 -125q0 -45 49 -69t122.5 -27t158.5 -19t159 -43t123 -100.5t49 -188.5q0 -156 -120 -243t-351 -87q-199 0 -317.5 57.5t-118.5 162.5q0 90 96 192 q2 -82 57.5 -132t125 -65.5t157.5 -15.5q80 0 145.5 34t65.5 107q0 53 -49 81t-123 33t-160 18.5t-159.5 35t-123 87t-49.5 169.5z" />
<glyph unicode="t" horiz-adv-x="911" d="M125 336v917q264 0 264 -174v-73h418q0 -8 -1 -21.5t-9.5 -48.5t-22.5 -61.5t-46 -48t-73 -21.5h-266v-412q0 -111 42 -164t153 -53q102 0 171.5 51.5t69.5 163.5q86 -96 86 -182q0 -100 -94 -167t-270 -67q-201 0 -311.5 95.5t-110.5 265.5z" />
<glyph unicode="u" horiz-adv-x="1169" d="M123 313v756q10 0 28.5 -1t64.5 -9t81 -20.5t63.5 -39t28.5 -63.5v-592q0 -84 46 -127t151 -43q47 0 95 7t73 16l26 6v866q10 0 28.5 -1t65 -8t81 -19.5t63.5 -40t29 -64.5v-961q-80 43 -185 43q-49 0 -148.5 -21.5t-156.5 -21.5q-184 0 -309 78t-125 260z" />
<glyph unicode="v" horiz-adv-x="1071" d="M41 1069q10 0 27.5 -1t63.5 -8t81 -18.5t66.5 -38t35.5 -63.5l41 -311q31 -260 162 -389l17 -15q6 4 15 14.5t35.5 46.5t49 78t45 113.5t33.5 151.5l41 311q6 57 75.5 89t135.5 36l65 4l-45 -403q-14 -133 -66.5 -256t-111.5 -200t-127 -140.5t-100.5 -86t-44.5 -28.5 q-12 6 -45 28.5t-102 86t-128 140.5t-111.5 199.5t-64.5 256.5z" />
<glyph unicode="w" horiz-adv-x="1667" d="M43 1069q139 0 219 -53q49 -31 55 -78l41 -311q35 -262 164 -389l17 -15q16 10 39.5 26.5t77 71t79.5 107.5q-45 139 -45 326q0 139 62.5 209.5t203.5 76.5q-23 -176 -22 -292q0 -106 20.5 -199.5t49 -150t58.5 -98.5t50 -58l21 -19q16 20 42.5 56t77 141.5t62.5 206.5 l41 311q8 57 75.5 90t131.5 37l63 4l-41 -405q-14 -133 -65.5 -255t-115 -201t-124.5 -138.5t-104 -85.5l-41 -27q-20 10 -54 29.5t-115 86t-130 142.5q-111 -154 -291 -254l-8 -4q-16 10 -43 27.5t-98.5 83t-128 141.5t-111 198.5t-68.5 256.5z" />
<glyph unicode="x" horiz-adv-x="1019" d="M0 2q51 63 111 166l141 242q23 37 48.5 65.5t39.5 36.5l14 10q-74 74 -102 123l-156 264q-45 78 -96 144q92 16 135 16q57 0 118.5 -26.5t98.5 -86.5l158 -266l158 266q37 59 98 86t119 27l135 -16q-51 -66 -96 -144l-156 -264q-29 -49 -102 -123q53 -29 102 -112 l141 -242q59 -102 111 -166q-92 -16 -135 -16q-59 0 -123 25.5t-98 86.5l-154 271l-154 -271q-35 -61 -98 -86.5t-123 -25.5z" />
<glyph unicode="y" horiz-adv-x="1091" d="M63 1069q10 0 28 -1t62 -9t78.5 -23.5t67.5 -50.5t39 -82l41 -276q10 -72 32.5 -133.5t46 -100.5t47 -66.5t37 -39t15.5 -11.5l14 13q14 12 39 40.5t49.5 67.5t47 100.5t30.5 129.5l37 274q10 74 80 116t133 48l66 4l-45 -405q-20 -182 -115.5 -331t-208.5 -235l-80 -61 q-80 -63 -122 -102t-76.5 -98.5t-34.5 -125.5q0 -86 43 -178q-53 -29 -109 -29q-80 0 -134 57.5t-54 172.5q0 127 71.5 215t212.5 192q-104 61 -189 207t-103 316z" />
<glyph unicode="z" horiz-adv-x="972" d="M47 88q0 92 45 176t118 153.5t148.5 134t151.5 143.5t113 157h-551q0 8 1 21.5t9 49t22.5 62.5t46 48.5t74.5 21.5h713q-10 -35 -23.5 -98.5t-19.5 -90.5q-27 -94 -99.5 -189t-150.5 -161.5t-169 -154t-138 -158.5h604q0 -8 -1 -21.5t-9 -49.5t-22.5 -62.5t-46.5 -48 t-75 -21.5h-729q-12 55 -12 88z" />
<glyph unicode="{" horiz-adv-x="548" d="M20 557q4 2 11.5 7t27 23.5t33.5 40t26.5 56.5t12.5 74v553q0 119 64.5 186.5t160 51t172.5 -118.5q-49 0 -80.5 -14.5t-45 -45.5t-16.5 -58.5t-3 -74.5v-489q0 -115 -107 -193q106 -72 107 -193v-489q0 -47 3 -74.5t16.5 -58.5t45 -45t80.5 -14q-78 -102 -173 -119 t-159.5 51t-64.5 186v553q-5 103 -111 205z" />
<glyph unicode="|" horiz-adv-x="552" d="M143 -362v1929q10 0 28.5 -1t65 -8.5t81 -19.5t63.5 -40t29 -64v-1930q-10 0 -29 1t-65 8.5t-80.5 19.5t-63.5 40t-29 65z" />
<glyph unicode="}" horiz-adv-x="548" d="M20 -319q49 0 81 14t45.5 45t16.5 58.5t3 74.5v489q0 121 106 193q-106 78 -106 193v489q0 47 -3 74.5t-16.5 58.5t-45 45.5t-81.5 14.5q78 102 173.5 118.5t160 -51t64.5 -186.5v-553q0 -61 27.5 -111.5t54.5 -68.5l28 -21q-12 -10 -30.5 -30.5t-49 -74t-30.5 -100.5 v-553q0 -119 -64.5 -186.5t-160 -50.5t-173.5 119z" />
<glyph unicode="~" horiz-adv-x="1349" d="M82 612q-45 139 10 215t203 76q129 0 383 -53t387 -53q41 0 65.5 3t64.5 25.5t77 65.5q76 -301 -217 -301q-129 0 -383 53t-385 53q-127 0 -205 -84z" />
<glyph unicode="&#xa1;" horiz-adv-x="593" d="M205 113v970h28q18 0 64.5 -7t81.5 -19.5t63.5 -40t28.5 -66.5v-970q-10 0 -28.5 1t-64.5 8t-81 19t-63.5 40t-28.5 65zM213 1272v192h166q33 0 57.5 -18.5t24.5 -44.5v-193h-168q-31 0 -55.5 19.5t-24.5 44.5z" />
<glyph unicode="&#xa2;" horiz-adv-x="1062" d="M102 336v383q0 166 111 260t317 100v121q6 0 14.5 -1t32 -6t41 -14.5t32 -31t14.5 -49.5v-27q123 -16 205.5 -70.5t82.5 -152.5q0 -92 -78 -207q0 190 -210 229v-684q115 16 183 70.5t71 132.5q63 -90 63 -168q0 -96 -87 -160.5t-230 -80.5v-136q-6 0 -14.5 1t-32 6.5 t-41 14.5t-32 30.5t-14.5 50.5v30q-199 10 -313.5 104.5t-114.5 254.5zM369 387q0 -98 36.5 -147.5t124.5 -57.5v695q-86 -6 -123.5 -53.5t-37.5 -155.5v-281z" />
<glyph unicode="&#xa3;" horiz-adv-x="1318" d="M143 57q29 117 29 193v956q0 166 133 263.5t340 97.5t310.5 -60.5t99.5 -149.5t-94 -190q-8 111 -90.5 155t-225.5 44q-96 0 -147.5 -49t-51.5 -141v-230h400q0 -8 -1 -21.5t-9.5 -49t-23.5 -62.5t-46 -48.5t-74 -21.5h-246v-436l-8 -114q186 -51 402 -52q117 0 207 64.5 t122 191.5q131 -195 27 -332t-342 -137q-168 0 -321.5 30.5t-389.5 98.5z" />
<glyph unicode="&#xa5;" horiz-adv-x="1318" d="M25 1458q74 18 125 19q166 0 231 -134l94 -190q129 -264 184 -334q23 29 47.5 72t40 73.5t47 93t44.5 87.5l100 198q68 133 231 134q18 0 50 -5.5t55 -9.5l20 -6q-47 -80 -181 -352.5t-236 -403.5h174q29 -176 -113 -176h-141v-141h254q29 -176 -113 -176h-141v-227 q-10 0 -29.5 1t-67 8t-83 19t-65.5 40t-30 65v94h-239q-23 70 5.5 123t106.5 53h127v141h-239q-23 70 5.5 123t106.5 53h45q-102 129 -227 393.5t-188 364.5z" />
<glyph unicode="&#xa6;" horiz-adv-x="552" d="M143 -362v751q10 0 28.5 -1t65 -8t81 -19.5t63.5 -40t29 -64.5v-752q-10 0 -29 1t-65 8.5t-80.5 19.5t-63.5 40t-29 65zM143 815v750q10 0 28.5 -1t65 -8.5t81 -19.5t63.5 -40t29 -64v-750q-10 0 -29 1t-65 8t-80.5 19.5t-63.5 40t-29 64.5z" />
<glyph unicode="&#xa7;" horiz-adv-x="1230" d="M115 1167q0 397 506 398q240 0 368.5 -67.5t128.5 -194.5q0 -92 -69 -211q-45 281 -428 280q-84 0 -138.5 -15.5t-78 -49t-30.5 -65.5t-7 -85q0 -70 53 -114t133 -61t173 -44t173 -56.5t133 -102t53 -181.5q0 -195 -153 -262q12 90 12 106q0 84 -46 139.5t-118.5 83 t-162 49t-177.5 50.5t-160.5 72t-118.5 126.5t-46 204.5zM121 -215q0 92 69 211q45 -281 428 -281q84 0 138.5 15.5t78 49.5t30.5 65.5t7 84.5q0 70 -53 114t-133 61.5t-173 44t-173 56.5t-133 102.5t-53 180.5q0 195 153 263q-12 -88 -12 -107q0 -84 46 -139t118.5 -83 t161 -49.5t177.5 -50t161.5 -71.5t118.5 -127t46 -205q0 -397 -506 -397q-240 0 -368.5 67.5t-128.5 194.5z" />
<glyph unicode="&#xa8;" horiz-adv-x="946" d="M172 1278v172h164q31 0 51.5 -19.5t20.5 -39.5v-170h-164q-33 0 -52.5 17t-19.5 40zM539 1278v172h163q31 0 51.5 -19.5t20.5 -39.5v-170h-164q-33 0 -52 17t-19 40z" />
<glyph unicode="&#xa9;" horiz-adv-x="1728" d="M123 479v522q0 231 199.5 365.5t541.5 134.5t542 -134t200 -366v-522q0 -231 -200 -365t-542 -134t-541.5 134t-199.5 365zM354 547q0 -188 114 -285.5t392 -97.5q283 0 398.5 97t115.5 286v387q0 188 -115.5 285.5t-398.5 97.5q-279 0 -392.5 -97.5t-113.5 -285.5v-387z M487 596v291q0 303 402 303q160 0 246 -47t86 -125q0 -63 -60 -146q-33 84 -101.5 111t-170.5 27q-33 0 -56.5 -5.5t-48 -18.5t-38 -45t-13.5 -81v-235q0 -92 42 -122t114 -30q100 0 166.5 27.5t99.5 113.5q53 -88 53 -151q0 -84 -85 -128t-234 -44q-402 0 -402 305z" />
<glyph unicode="&#xaa;" horiz-adv-x="976" d="M123 885q0 76 42 127t105.5 73.5t129 38t125 35t79.5 49.5q-4 102 -135 103q-217 0 -225 -137q-76 68 -76 139q0 74 83 123t238 49q176 0 270.5 -74t94.5 -205v-542q-63 18 -131 18q-49 0 -145.5 -17.5t-161.5 -17.5q-123 0 -208 59.5t-85 178.5zM373 899q0 -88 119 -88 l120 23v206q-16 -27 -58 -44t-81 -23t-69.5 -24.5t-30.5 -49.5z" />
<glyph unicode="&#xab;" horiz-adv-x="1386" d="M162 408q-115 115 2 231l411 412q190 -117 95 -213l-314 -316l375 -375q-33 -66 -102.5 -95t-130.5 20zM674 408q-115 115 2 231l411 412q190 -117 95 -213l-314 -316l375 -375q-33 -66 -102.5 -95t-130.5 20z" />
<glyph unicode="&#xac;" horiz-adv-x="1398" d="M47 733q0 45 12 90h1014q109 0 145.5 -39t36.5 -131v-503q-2 -106 -131 -107q-51 0 -108 14v543l-842 2q-127 0 -127 131z" />
<glyph unicode="&#xad;" horiz-adv-x="1005" d="M124 494.5q1 33.5 9 59.5t32.5 47.5t65.5 21.5h643q2 -8 4.5 -21.5t2.5 -47.5t-8.5 -59.5t-33 -47t-65.5 -21.5h-645q-2 8 -4 21.5t-1 47z" />
<glyph unicode="&#xae;" horiz-adv-x="1026" d="M80 831v332q0 137 116.5 216t315.5 79t316.5 -79t117.5 -216v-332q0 -137 -117.5 -216.5t-316.5 -79.5t-315.5 79.5t-116.5 216.5zM242 862q0 -88 65.5 -139t200.5 -51q139 0 206.5 51t67.5 139v264q0 88 -67.5 141.5t-206.5 53.5q-133 0 -199.5 -53.5t-66.5 -141.5v-264 zM346 831v408h133q98 0 154.5 -32.5t56.5 -123.5q0 -41 -32.5 -85t-77.5 -54q90 -31 133 -164q-66 -20 -95 -20q-27 0 -42 23.5t-35.5 60.5t-53.5 59v-141h-15q-9 0 -33.5 4t-43 10t-34 20.5t-15.5 34.5zM487 1026h7q61 0 61 64q0 59 -61 59h-7v-123z" />
<glyph unicode="&#xaf;" horiz-adv-x="899" d="M134 1299.5q1 31.5 11.5 55t38 43t72.5 19.5h516q2 -8 4 -19.5t1 -43t-9 -55t-37 -43t-74 -19.5h-518q-2 8 -4 19.5t-1 43z" />
<glyph unicode="&#xb0;" horiz-adv-x="796" d="M82 1176v186q0 94 86 149.5t229 55.5q145 0 231.5 -55.5t86.5 -149.5v-186q0 -98 -85 -150.5t-233 -52.5q-145 0 -230 52.5t-85 150.5zM303 1223q0 -43 19.5 -63.5t75 -20.5t76 20.5t20.5 63.5v94q0 41 -20.5 62.5t-76 21.5t-75 -20.5t-19.5 -63.5v-94z" />
<glyph unicode="&#xb1;" horiz-adv-x="1067" d="M124 634q1 36 11 63.5t38 50t73 22.5h157v231q10 2 26.5 5.5t59.5 4.5t77 -5.5t60.5 -32t26.5 -66.5v-137h283q2 -8 4 -22.5t1 -50t-9 -63.5t-37 -50.5t-74 -22.5h-168v-221q-10 -2 -26.5 -5t-59.5 -3t-76.5 6t-60.5 30.5t-27 65.5v127h-274q-2 8 -4 22.5t-1 50.5z M161 116q1 34 10 60.5t37 48t73 21.5h628q2 -8 4 -21.5t1 -47.5t-9 -60.5t-36.5 -48t-73.5 -21.5h-629q-2 8 -4 21.5t-1 47.5z" />
<glyph unicode="&#xb2;" horiz-adv-x="800" d="M102 700v117q0 70 39 120t94.5 77.5t111.5 53.5t95 59.5t39 80.5v15q0 94 -100 94q-41 0 -64.5 -3t-58.5 -15.5t-52.5 -45t-17.5 -84.5q-78 66 -77 140q0 66 74.5 104.5t195.5 38.5q125 0 204 -58.5t79 -152.5v-39q0 -70 -39 -121t-94.5 -79.5t-110.5 -52t-96 -51.5 t-43 -64h294q74 0 113 32q0 -16 -2 -30.5t-9 -52.5t-30.5 -60.5t-60.5 -22.5h-484z" />
<glyph unicode="&#xb3;" horiz-adv-x="774" d="M102 1307q0 68 74 106.5t189 38.5q127 0 204.5 -54.5t77.5 -150.5v-26q0 -115 -76 -144q86 -45 86 -147v-29q0 -94 -80.5 -153.5t-211.5 -59.5q-117 0 -188 41t-71 107q0 68 56 125q27 -137 203 -138q55 0 83.5 28t28.5 71q0 55 -25.5 75.5t-55 17.5t-55.5 18.5t-26 80.5 v8v8q2 8 2 11h56q94 0 94 90q0 86 -102 86q-78 0 -128.5 -28.5t-62.5 -117.5q-72 60 -72 136z" />
<glyph unicode="&#xb4;" horiz-adv-x="1001" d="M279 1323l67 68q78 78 103.5 123t1.5 88q98 -12 144 -68.5t27.5 -128.5t-98.5 -131l-121 -90l-77 26q-110 50 -47 113z" />
<glyph unicode="&#xb5;" horiz-adv-x="1169" d="M123 293v4v16v756q10 0 28.5 -1t64.5 -9t81 -20.5t63.5 -39t28.5 -63.5v-592q0 -84 46 -127t151 -43q47 0 95 7t73 16l26 6v866q10 0 28.5 -1t65 -8t81 -19.5t63.5 -40t29 -64.5v-961q-80 43 -185 43q-49 0 -148.5 -21.5t-156.5 -21.5q-96 0 -176 21q8 -74 8 -98v-398 q-10 0 -28.5 1t-64.5 8.5t-81 19.5t-63.5 40t-28.5 64v660z" />
<glyph unicode="&#x3bc;" horiz-adv-x="1169" d="M123 293v4v16v756q10 0 28.5 -1t64.5 -9t81 -20.5t63.5 -39t28.5 -63.5v-592q0 -84 46 -127t151 -43q47 0 95 7t73 16l26 6v866q10 0 28.5 -1t65 -8t81 -19.5t63.5 -40t29 -64.5v-961q-80 43 -185 43q-49 0 -148.5 -21.5t-156.5 -21.5q-96 0 -176 21q8 -74 8 -98v-398 q-10 0 -28.5 1t-64.5 8.5t-81 19.5t-63.5 40t-28.5 64v660z" />
<glyph unicode="&#xb6;" horiz-adv-x="1228" d="M41 690v410q0 170 117.5 267t335.5 97h268q283 0 371 62q53 37 47 98q84 -92 89 -173t-82 -133t-257 -52h-142q8 -35 9 -101v-1339q0 -145 -61.5 -232.5t-160.5 -87.5q-96 0 -194 91q170 25 170 294v359l8 98q-25 -14 -90 -14q-174 0 -301 100t-127 256zM877 -436 q45 35 45 297v1343q8 -4 21 -10t46 -27.5t58.5 -45t47 -61.5t21.5 -77v-1024q0 -12 1 -55t0 -58.5t-3 -52.5t-9 -53t-18.5 -45t-29 -44.5t-42 -34.5t-60 -31.5t-78.5 -20.5z" />
<glyph unicode="&#xb7;" horiz-adv-x="440" d="M96 496v192h168q31 0 55.5 -19.5t24.5 -43.5v-193h-166q-33 0 -57.5 18.5t-24.5 45.5z" />
<glyph unicode="&#xb8;" horiz-adv-x="1705" d="M418 -211q8 37 20 74l80 219q59 0 90 -20.5t25 -63.5l-10 -74l41 -4q88 -10 139 -61.5t51 -137.5q0 -90 -70.5 -145t-167.5 -55q-74 0 -122 34.5t-60 66.5t-12 56q53 -27 129 -26q47 0 79 20.5t32 61.5q0 78 -125 78z" />
<glyph unicode="&#xb9;" horiz-adv-x="692" d="M59 1335q0 47 42 78t124 31q41 0 99.5 5t97.5 9l37 4q-14 -96 -15 -133v-493h158q8 -25 8 -45q0 -88 -82 -89h-436q-8 25 -8 46q0 88 88 88h90v473q-115 0 -115 -111q-88 74 -88 137z" />
<glyph unicode="&#xba;" horiz-adv-x="1032" d="M123 930v276q0 133 98 206t295 73t295 -73t98 -206v-276q0 -133 -98 -206t-295 -73t-295 73t-98 206zM371 952q0 -70 29.5 -102.5t115.5 -32.5t114.5 33t28.5 102v232q0 70 -28.5 102.5t-114.5 32.5t-115.5 -33t-29.5 -102v-232z" />
<glyph unicode="&#xbb;" horiz-adv-x="1386" d="M143 147l375 375l-313 316q-96 96 94 213l412 -412q117 -117 2 -231l-336 -336q-61 -49 -131 -20t-103 95zM655 147l375 375l-313 316q-96 96 94 213l412 -412q117 -117 2 -231l-336 -336q-61 -49 -131 -20t-103 95z" />
<glyph unicode="&#xbc;" horiz-adv-x="1443" d="M59 1335q0 47 42 78t124 31q41 0 99.5 5t97.5 9l37 4q-14 -96 -15 -133v-493h158q8 -25 8 -45q0 -88 -82 -89h-436q-8 25 -8 46q0 88 88 88h90v473q-115 0 -115 -111q-88 74 -88 137zM365 432l725 721q127 -123 55 -195l-725 -720q-127 120 -55 194zM776 199 q8 133 147.5 315t215.5 250q6 0 17 -1t38 -5t47.5 -12.5t37.5 -24.5t17 -37v-358h84q0 -6 -3 -21.5t-10 -39t-25.5 -43t-45.5 -23.5v-199q-14 0 -34.5 2t-58.5 8t-63.5 25.5t-25.5 46.5v117h-338zM971 326h143v206q-104 -120 -143 -206z" />
<glyph unicode="&#xbd;" horiz-adv-x="1576" d="M59 1335q0 47 42 78t124 31q41 0 99.5 5t97.5 9l37 4q-14 -96 -15 -133v-493h158q8 -25 8 -45q0 -88 -82 -89h-436q-8 25 -8 46q0 88 88 88h90v473q-115 0 -115 -111q-88 74 -88 137zM365 432l725 721q127 -123 55 -195l-725 -720q-127 120 -55 194zM932 -10v116 q0 70 39 120t95 78t111.5 53.5t94.5 59.5t39 81v14q0 94 -101 94q-41 0 -64.5 -3t-58 -15.5t-52 -45t-17.5 -83.5q-78 66 -78 139q0 66 75 104.5t195 38.5q125 0 204 -58t79 -153v-38q0 -70 -39 -121.5t-94 -80t-110.5 -52t-96.5 -51t-43 -64.5h295q74 0 113 33 q0 -16 -2.5 -30.5t-9.5 -52.5t-30.5 -60.5t-60.5 -22.5h-483z" />
<glyph unicode="&#xbe;" horiz-adv-x="1447" d="M102 1307q0 68 74 106.5t189 38.5q127 0 204.5 -54.5t77.5 -150.5v-26q0 -115 -76 -144q86 -45 86 -147v-29q0 -94 -80.5 -153.5t-211.5 -59.5q-117 0 -188 41t-71 107q0 68 56 125q27 -137 203 -138q55 0 83.5 28t28.5 71q0 55 -25.5 75.5t-55 17.5t-55.5 18.5t-26 80.5 v8v8q2 8 2 11h56q94 0 94 90q0 86 -102 86q-78 0 -128.5 -28.5t-62.5 -117.5q-72 60 -72 136zM389 432l725 721q127 -123 55 -195l-725 -720q-127 120 -55 194zM778 199q8 133 147.5 315t215.5 250q6 0 17 -1t38 -5t47.5 -12.5t37.5 -24.5t17 -37v-358h84q0 -6 -3 -21.5 t-10 -39t-25.5 -43t-45.5 -23.5v-199q-14 0 -34.5 2t-58.5 8t-63.5 25.5t-25.5 46.5v117h-338zM973 326h143v206q-104 -120 -143 -206z" />
<glyph unicode="&#xbf;" horiz-adv-x="1136" d="M61 354v52q0 80 35 146t87.5 108t113.5 84t113.5 74t87 78t34.5 99v99q10 0 28 -1t63 -8.5t78.5 -20.5t61.5 -42t28 -68v-32q0 -70 -47.5 -128.5t-114 -101.5t-133 -84t-113.5 -96t-47 -121q0 -96 65.5 -150.5t194.5 -54.5q133 0 221 55.5t88 170.5q84 -78 103.5 -157 t-20.5 -141.5t-142.5 -101.5t-249.5 -39q-240 0 -387.5 99.5t-147.5 281.5zM539 1270v192h166q33 0 57 -18.5t24 -44.5v-193h-168q-31 0 -55 19.5t-24 44.5z" />
<glyph unicode="&#xc0;" horiz-adv-x="1396" d="M0 8q37 55 127 338l174 539q47 145 113.5 269t128 197.5t98.5 109.5t57 50q20 -14 57.5 -50t98.5 -109.5t128 -197.5t114 -269l174 -539q90 -283 127 -338q-68 -23 -115 -22q-66 0 -114 23.5t-80.5 74.5t-49 90t-41.5 113l-6 18l-35 109h-516l-34 -109 q-57 -172 -101 -229q-70 -90 -190 -90zM500 618h397l-63 213q-23 76 -57 163t-56 136l-23 48q-59 -94 -135 -347zM469.5 1782q-18.5 72 27.5 128t145 69q-25 -43 0.5 -88.5t103.5 -122.5l68 -68q72 -72 -78 -125l-47 -14l-121 90q-80 59 -98.5 131z" />
<glyph unicode="&#xc1;" horiz-adv-x="1396" d="M0 8q37 55 127 338l174 539q47 145 113.5 269t128 197.5t98.5 109.5t57 50q20 -14 57.5 -50t98.5 -109.5t128 -197.5t114 -269l174 -539q90 -283 127 -338q-68 -23 -115 -22q-66 0 -114 23.5t-80.5 74.5t-49 90t-41.5 113l-6 18l-35 109h-516l-34 -109 q-57 -172 -101 -229q-70 -90 -190 -90zM500 618h397l-63 213q-23 76 -57 163t-56 136l-23 48q-59 -94 -135 -347zM582 1700l67 67q78 78 103.5 123t1.5 88q98 -12 144 -68.5t27.5 -128t-98.5 -130.5l-120 -90l-78 26q-110 50 -47 113z" />
<glyph unicode="&#xc2;" horiz-adv-x="1396" d="M0 8q37 55 127 338l174 539q47 145 113.5 269t128 197.5t98.5 109.5t57 50q20 -14 57.5 -50t98.5 -109.5t128 -197.5t114 -269l174 -539q90 -283 127 -338q-68 -23 -115 -22q-66 0 -114 23.5t-80.5 74.5t-49 90t-41.5 113l-6 18l-35 109h-516l-34 -109 q-57 -172 -101 -229q-70 -90 -190 -90zM500 618h397l-63 213q-23 76 -57 163t-56 136l-23 48q-59 -94 -135 -347zM393 1693.5q-6 20.5 11.5 47.5t38 49.5t64.5 56t85 61.5t106 71q66 -43 107 -70t86 -60.5t65.5 -57t38 -50.5t11 -47.5t-23.5 -43t-56 -43t-97 -40.5 q53 78 -104 205l-27 20q-4 -2 -10 -7t-25.5 -21.5t-34 -31t-34 -38t-25.5 -42t-11 -43t11 -42.5q-57 20 -96 40.5t-56.5 43t-23.5 43z" />
<glyph unicode="&#xc3;" horiz-adv-x="1396" d="M0 8q37 55 127 338l174 539q47 145 113.5 269t128 197.5t98.5 109.5t57 50q20 -14 57.5 -50t98.5 -109.5t128 -197.5t114 -269l174 -539q90 -283 127 -338q-68 -23 -115 -22q-66 0 -114 23.5t-80.5 74.5t-49 90t-41.5 113l-6 18l-35 109h-516l-34 -109 q-57 -172 -101 -229q-70 -90 -190 -90zM398 1770.5q36 89.5 122 89.5q53 0 184.5 -47.5t192.5 -47.5q63 0 100 54q43 -66 12.5 -153t-124.5 -87q-55 0 -185.5 47t-189.5 47q-66 0 -102 -51q-46 59 -10 148.5zM500 618h397l-63 213q-23 76 -57 163t-56 136l-23 48 q-59 -94 -135 -347z" />
<glyph unicode="&#xc4;" horiz-adv-x="1396" d="M0 8q37 55 127 338l174 539q47 145 113.5 269t128 197.5t98.5 109.5t57 50q20 -14 57.5 -50t98.5 -109.5t128 -197.5t114 -269l174 -539q90 -283 127 -338q-68 -23 -115 -22q-66 0 -114 23.5t-80.5 74.5t-49 90t-41.5 113l-6 18l-35 109h-516l-34 -109 q-57 -172 -101 -229q-70 -90 -190 -90zM500 618h397l-63 213q-23 76 -57 163t-56 136l-23 48q-59 -94 -135 -347zM397 1655v172h164q31 0 51.5 -19.5t20.5 -39.5v-170h-164q-33 0 -52.5 17t-19.5 40zM764 1655v172h163q31 0 51.5 -19.5t20.5 -39.5v-170h-164q-33 0 -52 17 t-19 40z" />
<glyph unicode="&#xc5;" horiz-adv-x="1396" d="M0 8q37 55 127 338l174 539q47 145 113.5 269t128 197.5t98.5 109.5t57 50q20 -14 57.5 -50t98.5 -109.5t128 -197.5t114 -269l174 -539q90 -283 127 -338q-68 -23 -115 -22q-66 0 -114 23.5t-80.5 74.5t-49 90t-41.5 113l-6 18l-35 109h-516l-34 -109 q-57 -172 -101 -229q-70 -90 -190 -90zM489 1700v98q0 61 57.5 98t151.5 37q96 0 152.5 -35.5t56.5 -99.5v-98q0 -63 -56 -98t-152.5 -35t-153 35t-56.5 98zM500 618h397l-63 213q-23 76 -57 163t-56 136l-23 48q-59 -94 -135 -347zM629 1722q0 -25 13 -36t54 -11 q72 0 72 47v54q0 49 -72 49q-41 0 -54 -12.5t-13 -36.5v-54z" />
<glyph unicode="&#xc6;" horiz-adv-x="1748" d="M0 8q39 70 129 363l166 532q66 209 172 354.5t205 206.5h1005q0 -8 -1 -21t-9 -49t-22.5 -62.5t-46 -48t-74.5 -21.5h-475v-379h319q78 0 135.5 8t73.5 16l18 8q0 -236 -194 -235h-352v-477h628q0 -16 -4 -39t-16 -66t-47 -70.5t-86 -27.5h-527q-8 0 -23.5 1t-54 8 t-67.5 19.5t-53.5 40t-24.5 64.5v293h-340l-33 -111q-2 -6 -13 -44t-14 -47l-15 -43q-11 -34 -18 -45t-21.5 -38.5t-26.5 -38t-32.5 -29t-41 -25.5t-47.5 -13t-57 -6zM494 629h280v624q-131 -111 -219 -419q-10 -39 -30.5 -104.5t-30.5 -100.5z" />
<glyph unicode="&#xc7;" horiz-adv-x="1413" d="M123 479v506q0 260 177 382t450 122q106 0 202.5 -14.5t179 -48t131 -85t48.5 -131.5t-60 -178q-35 129 -180 186.5t-321 57.5q-352 0 -353 -320v-446q0 -324 353 -324q426 0 501 246q59 -117 50 -201t-86.5 -139t-181 -82.5t-230.5 -32.5l-6 -53l41 -4q88 -10 139 -61.5 t51 -137.5q0 -90 -70.5 -145t-166.5 -55q-74 0 -122 34.5t-60.5 66.5t-12.5 56q53 -27 129 -26q47 0 79 20.5t32 61.5q0 78 -125 78l-119 -23q8 37 20 74l41 117q-236 20 -383 141.5t-147 357.5z" />
<glyph unicode="&#xc8;" horiz-adv-x="1220" d="M143 133v1331h1006q0 -8 -1 -21t-9.5 -49t-22.5 -62.5t-46 -48t-75 -21.5h-577v-379h422q78 0 135 8t74 16l18 8q0 -236 -195 -235h-454v-477h731q0 -16 -4 -39t-16.5 -66t-47 -70.5t-86.5 -27.5h-628q-8 0 -23.5 1t-54.5 8t-67.5 19.5t-53.5 40t-25 64.5zM438.5 1782 q-18.5 72 27.5 128t145 69q-25 -43 0.5 -88.5t103.5 -122.5l68 -68q72 -72 -78 -125l-47 -14l-121 90q-80 59 -98.5 131z" />
<glyph unicode="&#xc9;" horiz-adv-x="1220" d="M143 133v1331h1006q0 -8 -1 -21t-9.5 -49t-22.5 -62.5t-46 -48t-75 -21.5h-577v-379h422q78 0 135 8t74 16l18 8q0 -236 -195 -235h-454v-477h731q0 -16 -4 -39t-16.5 -66t-47 -70.5t-86.5 -27.5h-628q-8 0 -23.5 1t-54.5 8t-67.5 19.5t-53.5 40t-25 64.5zM551 1700 l67 67q78 78 104 123t1 88q98 -12 144 -68.5t28 -128t-98 -130.5l-121 -90l-78 26q-110 50 -47 113z" />
<glyph unicode="&#xca;" horiz-adv-x="1220" d="M143 133v1331h1006q0 -8 -1 -21t-9.5 -49t-22.5 -62.5t-46 -48t-75 -21.5h-577v-379h422q78 0 135 8t74 16l18 8q0 -236 -195 -235h-454v-477h731q0 -16 -4 -39t-16.5 -66t-47 -70.5t-86.5 -27.5h-628q-8 0 -23.5 1t-54.5 8t-67.5 19.5t-53.5 40t-25 64.5zM362 1693.5 q-6 20.5 11.5 47.5t38 49.5t64.5 56t85 61.5t106 71q66 -43 107 -70t86 -60.5t65.5 -57t38 -50.5t11 -47.5t-23.5 -43t-56 -43t-97 -40.5q53 78 -104 205l-27 20q-4 -2 -10 -7t-25.5 -21.5t-34 -31t-34 -38t-25.5 -42t-11 -43t11 -42.5q-57 20 -96 40.5t-56.5 43t-23.5 43z " />
<glyph unicode="&#xcb;" horiz-adv-x="1220" d="M143 133v1331h1006q0 -8 -1 -21t-9.5 -49t-22.5 -62.5t-46 -48t-75 -21.5h-577v-379h422q78 0 135 8t74 16l18 8q0 -236 -195 -235h-454v-477h731q0 -16 -4 -39t-16.5 -66t-47 -70.5t-86.5 -27.5h-628q-8 0 -23.5 1t-54.5 8t-67.5 19.5t-53.5 40t-25 64.5zM367 1655v172 h163q31 0 51.5 -19.5t20.5 -40.5v-170h-164q-33 0 -52 17.5t-19 40.5zM733 1655v172h164q31 0 51.5 -19.5t20.5 -40.5v-170h-164q-33 0 -52.5 17.5t-19.5 40.5z" />
<glyph unicode="&#xcc;" horiz-adv-x="561" d="M143 113v1372q10 0 30 -1t67 -8.5t82.5 -19.5t65.5 -39.5t30 -64.5v-1372q-10 0 -29.5 1t-67 8t-83 19t-65.5 40t-30 65zM51.5 1782q-18.5 72 27.5 128t145 69q-25 -43 0.5 -88.5t103.5 -122.5l68 -68q72 -72 -78 -125l-47 -14l-121 90q-80 59 -98.5 131z" />
<glyph unicode="&#xcd;" horiz-adv-x="561" d="M143 113v1372q10 0 30 -1t67 -8.5t82.5 -19.5t65.5 -39.5t30 -64.5v-1372q-10 0 -29.5 1t-67 8t-83 19t-65.5 40t-30 65zM164 1700l67 67q78 78 103.5 123t1.5 88q98 -12 144 -68.5t27.5 -128t-97.5 -130.5l-121 -90l-78 26q-110 50 -47 113z" />
<glyph unicode="&#xce;" horiz-adv-x="561" d="M143 113v1372q10 0 30 -1t67 -8.5t82.5 -19.5t65.5 -39.5t30 -64.5v-1372q-10 0 -29.5 1t-67 8t-83 19t-65.5 40t-30 65zM-25 1693.5q-6 20.5 11.5 47.5t38 49.5t64.5 56t85 61.5t106 71q66 -43 107 -70t86 -60.5t65.5 -57t38 -50.5t11 -47.5t-23.5 -43t-56 -43 t-97 -40.5q53 78 -104 205l-27 20q-4 -2 -10 -7t-25.5 -21.5t-34 -31t-34 -38t-25.5 -42t-11 -43t11 -42.5q-57 20 -96 40.5t-56.5 43t-23.5 43z" />
<glyph unicode="&#xcf;" horiz-adv-x="561" d="M-20 1655v172h163q31 0 51.5 -19.5t20.5 -40.5v-170h-164q-33 0 -52 17.5t-19 40.5zM143 113v1372q10 0 30 -1t67 -8.5t82.5 -19.5t65.5 -39.5t30 -64.5v-1372q-10 0 -29.5 1t-67 8t-83 19t-65.5 40t-30 65zM346 1655v172h164q31 0 51.5 -19.5t20.5 -40.5v-170h-164 q-33 0 -52.5 17.5t-19.5 40.5z" />
<glyph unicode="&#xd0;" horiz-adv-x="1497" d="M-1 699.5q1 33.5 9 59t33 47t65 21.5h37v637h594q131 0 238.5 -24.5t201 -78.5t145.5 -155.5t52 -244.5v-457q0 -143 -52 -244.5t-145.5 -156t-201 -79t-238.5 -24.5h-375q-18 0 -44.5 3t-70.5 14.5t-74 42t-30 73.5v498h-139q-2 8 -4 21.5t-1 47zM418 203h319 q362 0 363 321v418q0 319 -363 320h-319v-435h332q2 -8 4 -21t2 -47t-8.5 -59.5t-33 -47t-65.5 -21.5h-231v-428z" />
<glyph unicode="&#xd1;" horiz-adv-x="1507" d="M143 113v1351q106 0 158.5 -4t116 -30.5t96.5 -81.5l600 -940q-25 117 -24 217v839q10 0 29.5 -1t66.5 -8t83 -19.5t65.5 -40t29.5 -64.5v-1351q-86 0 -156.5 15t-108.5 36.5t-64.5 43t-35.5 36.5l-8 16l-596 946q23 -117 23 -217v-876q-10 0 -29.5 1t-67 8t-83 19 t-65.5 40t-30 65zM455.5 1771q35.5 89 121.5 89q53 0 184.5 -47t192.5 -47q63 0 100 53q43 -66 12.5 -153t-124.5 -87q-55 0 -185.5 47t-189.5 47q-66 0 -102 -51q-45 60 -9.5 149z" />
<glyph unicode="&#xd2;" d="M123 461v543q0 233 153.5 359t463 126t463 -126t153.5 -359v-543q0 -233 -153.5 -359.5t-463 -126.5t-463 126.5t-153.5 359.5zM397 487q0 -160 70 -234.5t270 -74.5q203 0 273.5 75t70.5 234v490q0 160 -70.5 234.5t-273.5 74.5q-201 0 -270.5 -74.5t-69.5 -234.5v-490z M512.5 1782q-18.5 72 27.5 128t145 69q-25 -43 0.5 -88.5t103.5 -122.5l68 -68q72 -72 -78 -125l-47 -14l-121 90q-80 59 -98.5 131z" />
<glyph unicode="&#xd3;" d="M123 461v543q0 233 153.5 359t463 126t463 -126t153.5 -359v-543q0 -233 -153.5 -359.5t-463 -126.5t-463 126.5t-153.5 359.5zM397 487q0 -160 70 -234.5t270 -74.5q203 0 273.5 75t70.5 234v490q0 160 -70.5 234.5t-273.5 74.5q-201 0 -270.5 -74.5t-69.5 -234.5v-490z M625 1700l67 67q78 78 103.5 123t1.5 88q98 -12 144 -68.5t27.5 -128t-98.5 -130.5l-120 -90l-78 26q-110 50 -47 113z" />
<glyph unicode="&#xd4;" d="M123 461v543q0 233 153.5 359t463 126t463 -126t153.5 -359v-543q0 -233 -153.5 -359.5t-463 -126.5t-463 126.5t-153.5 359.5zM397 487q0 -160 70 -234.5t270 -74.5q203 0 273.5 75t70.5 234v490q0 160 -70.5 234.5t-273.5 74.5q-201 0 -270.5 -74.5t-69.5 -234.5v-490z M436 1693.5q-6 20.5 11.5 47.5t38 49.5t64.5 56t85 61.5t106 71q66 -43 107 -70t86 -60.5t65.5 -57t38 -50.5t11 -47.5t-23.5 -43t-56 -43t-97 -40.5q53 78 -104 205l-27 20q-4 -2 -10 -7t-25.5 -21.5t-34 -31t-34 -38t-25.5 -42t-11 -43t11 -42.5q-57 20 -96 40.5t-56.5 43 t-23.5 43z" />
<glyph unicode="&#xd5;" d="M123 461v543q0 233 153.5 359t463 126t463 -126t153.5 -359v-543q0 -233 -153.5 -359.5t-463 -126.5t-463 126.5t-153.5 359.5zM397 487q0 -160 70 -234.5t270 -74.5q203 0 273.5 75t70.5 234v490q0 160 -70.5 234.5t-273.5 74.5q-201 0 -270.5 -74.5t-69.5 -234.5v-490z M441.5 1770.5q35.5 89.5 121.5 89.5q53 0 184.5 -47.5t192.5 -47.5q63 0 100 54q43 -66 12.5 -153t-124.5 -87q-55 0 -185.5 47t-189.5 47q-66 0 -102 -51q-45 59 -9.5 148.5z" />
<glyph unicode="&#xd6;" d="M123 461v543q0 233 153.5 359t463 126t463 -126t153.5 -359v-543q0 -233 -153.5 -359.5t-463 -126.5t-463 126.5t-153.5 359.5zM397 487q0 -160 70 -234.5t270 -74.5q203 0 273.5 75t70.5 234v490q0 160 -70.5 234.5t-273.5 74.5q-201 0 -270.5 -74.5t-69.5 -234.5v-490z M440 1655v172h164q31 0 51.5 -19.5t20.5 -39.5v-170h-164q-33 0 -52.5 17t-19.5 40zM807 1655v172h163q31 0 51.5 -19.5t20.5 -39.5v-170h-164q-33 0 -52 17t-19 40z" />
<glyph unicode="&#xd7;" horiz-adv-x="985" d="M123 758q4 8 13 20.5t37 40t55.5 43t65.5 12t73 -35.5l120 -117l103 102l98 99q8 -4 20.5 -13.5t41 -36t45 -52t17.5 -59.5t-26 -63l-135 -137l211 -211l-15 -20q-9 -12 -38 -40t-57.5 -43.5t-66.5 -12t-71 35.5l-125 125l-198 -200l-21 15q-12 9 -40.5 36.5t-45 53.5 t-17.5 60.5t26 63.5l133 135z" />
<glyph unicode="&#xd8;" d="M103 94.5q3 28.5 26 55.5l53 61q-59 100 -59 250v543q0 233 153.5 359t462.5 126q293 0 453 -119l104 121q4 -4 12.5 -10t26 -26.5t25.5 -41t5 -50.5t-26 -56l-45 -54q61 -104 62 -249v-543q0 -233 -153.5 -359.5t-463.5 -126.5q-299 0 -454 121l-111 -127q-4 4 -12 10.5 t-25.5 26t-27 40t-6.5 49zM397 457l635 729q-72 100 -295 100q-201 0 -270.5 -74.5t-69.5 -234.5v-490v-30zM444 279q70 -100 293 -101q203 0 273.5 75t70.5 234v490v33z" />
<glyph unicode="&#xd9;" d="M123 438v1047q10 0 29.5 -1t66.5 -8.5t83 -19.5t65.5 -39.5t29.5 -64.5v-883q0 -135 93.5 -208t249 -73t248.5 73t93 208v1016q10 0 29.5 -1t67 -8.5t83 -19.5t65.5 -39.5t30 -64.5v-914q0 -221 -177.5 -342t-439.5 -121t-439 121t-177 342zM512.5 1782 q-18.5 72 27.5 128t145 69q-25 -43 0.5 -88.5t103.5 -122.5l68 -68q72 -72 -78 -125l-47 -14l-121 90q-80 59 -98.5 131z" />
<glyph unicode="&#xda;" d="M123 438v1047q10 0 29.5 -1t66.5 -8.5t83 -19.5t65.5 -39.5t29.5 -64.5v-883q0 -135 93.5 -208t249 -73t248.5 73t93 208v1016q10 0 29.5 -1t67 -8.5t83 -19.5t65.5 -39.5t30 -64.5v-914q0 -221 -177.5 -342t-439.5 -121t-439 121t-177 342zM625 1700l67 67 q78 78 103.5 123t1.5 88q98 -12 144 -68.5t27.5 -128t-98.5 -130.5l-120 -90l-78 26q-110 50 -47 113z" />
<glyph unicode="&#xdb;" d="M123 438v1047q10 0 29.5 -1t66.5 -8.5t83 -19.5t65.5 -39.5t29.5 -64.5v-883q0 -135 93.5 -208t249 -73t248.5 73t93 208v1016q10 0 29.5 -1t67 -8.5t83 -19.5t65.5 -39.5t30 -64.5v-914q0 -221 -177.5 -342t-439.5 -121t-439 121t-177 342zM436 1693.5 q-6 20.5 11.5 47.5t38 49.5t64.5 56t85 61.5t106 71q66 -43 107 -70t86 -60.5t65.5 -57t38 -50.5t11 -47.5t-23.5 -43t-56 -43t-97 -40.5q53 78 -104 205l-27 20q-4 -2 -10 -7t-25.5 -21.5t-34 -31t-34 -38t-25.5 -42t-11 -43t11 -42.5q-57 20 -96 40.5t-56.5 43t-23.5 43z " />
<glyph unicode="&#xdc;" d="M123 438v1047q10 0 29.5 -1t66.5 -8.5t83 -19.5t65.5 -39.5t29.5 -64.5v-883q0 -135 93.5 -208t249 -73t248.5 73t93 208v1016q10 0 29.5 -1t67 -8.5t83 -19.5t65.5 -39.5t30 -64.5v-914q0 -221 -177.5 -342t-439.5 -121t-439 121t-177 342zM440 1655v172h164 q31 0 51.5 -19.5t20.5 -40.5v-170h-164q-33 0 -52.5 17.5t-19.5 40.5zM807 1655v172h164q31 0 51 -19.5t20 -40.5v-170h-163q-33 0 -52.5 17.5t-19.5 40.5z" />
<glyph unicode="&#xdd;" horiz-adv-x="1277" d="M4 1458q74 18 125 19q166 0 231 -134l95 -190q129 -264 184 -334q23 29 47.5 72t39.5 73.5t47 93t44 87.5l101 198q68 133 231 134q18 0 50 -5.5t54 -9.5l21 -6q-57 -94 -141 -273t-168 -322.5t-189 -250.5v-630q-10 0 -29.5 1t-66.5 8t-83 19t-65.5 40t-29.5 65v497 q-109 109 -191 253.5t-160.5 317.5t-146.5 277zM523 1700l67 68q78 78 103.5 123t1.5 88q98 -12 144 -68.5t27.5 -128.5t-98.5 -131l-121 -90l-77 26q-110 50 -47 113z" />
<glyph unicode="&#xde;" horiz-adv-x="1251" d="M143 113v1452q10 0 30 -1t67 -8.5t82.5 -19.5t65.5 -40t30 -64v-125h137q104 0 190 -11.5t168 -44t136.5 -85t88 -137.5t33.5 -200v-36q0 -481 -616 -482h-137v-331q-10 0 -29.5 1t-67 8t-83 19t-65.5 40t-30 65zM418 514h137q172 0 257 58.5t85 238.5q0 168 -87 230.5 t-255 62.5h-137v-590z" />
<glyph unicode="&#xdf;" horiz-adv-x="1366" d="M123 113v1032q0 186 163 304t369 118q225 0 363.5 -80t138.5 -248q0 -82 -50 -151.5t-109.5 -108.5t-109.5 -88t-50 -94q0 -41 35.5 -66.5t90 -37t118 -35t117.5 -55.5t90 -105.5t36 -178.5q0 -158 -121 -251t-352 -93q-117 0 -220.5 51.5t-135 142.5t87.5 220 q-14 -92 77 -150.5t191 -58.5q119 0 163 39t44 111q0 61 -49 100t-120 60.5t-140.5 48t-118.5 84t-49 147.5q0 76 49 146.5t106.5 115.5t106.5 94.5t49 83.5q0 80 -63.5 119t-167.5 39q-127 0 -200 -70.5t-73 -193.5v-1124q-10 0 -28.5 1t-64.5 8t-81 19t-63.5 40t-28.5 65z " />
<glyph unicode="&#xe0;" horiz-adv-x="1093" d="M86 297q0 106 57.5 176t142.5 100.5t173 50t162.5 47t97.5 70.5q0 139 -199 140q-143 0 -235 -55.5t-92 -176.5q-78 104 -78 199q0 84 69.5 138t155.5 73.5t182 19.5q225 0 343 -91t118 -259v-749q-66 33 -158 32q-49 0 -155.5 -18.5t-165.5 -18.5q-115 0 -204 28 t-151.5 103.5t-62.5 190.5zM350 301q0 -139 185 -139q109 0 190 37v333q-14 -35 -77.5 -56t-128 -31.5t-117 -46.5t-52.5 -97zM313.5 1405q-18.5 72 27.5 128t145 69q-25 -43 0.5 -88.5t103.5 -122.5l68 -68q72 -72 -78 -125l-47 -14l-121 90q-80 59 -98.5 131z" />
<glyph unicode="&#xe1;" horiz-adv-x="1093" d="M86 297q0 106 57.5 176t142.5 100.5t173 50t162.5 47t97.5 70.5q0 139 -199 140q-143 0 -235 -55.5t-92 -176.5q-78 104 -78 199q0 84 69.5 138t155.5 73.5t182 19.5q225 0 343 -91t118 -259v-749q-66 33 -158 32q-49 0 -155.5 -18.5t-165.5 -18.5q-115 0 -204 28 t-151.5 103.5t-62.5 190.5zM350 301q0 -139 185 -139q109 0 190 37v333q-14 -35 -77.5 -56t-128 -31.5t-117 -46.5t-52.5 -97zM426 1323l68 68q78 78 103.5 123t0.5 88q98 -12 144 -68.5t28 -128.5t-98 -131l-121 -90l-78 26q-110 50 -47 113z" />
<glyph unicode="&#xe2;" horiz-adv-x="1093" d="M86 297q0 106 57.5 176t142.5 100.5t173 50t162.5 47t97.5 70.5q0 139 -199 140q-143 0 -235 -55.5t-92 -176.5q-78 104 -78 199q0 84 69.5 138t155.5 73.5t182 19.5q225 0 343 -91t118 -259v-749q-66 33 -158 32q-49 0 -155.5 -18.5t-165.5 -18.5q-115 0 -204 28 t-151.5 103.5t-62.5 190.5zM350 301q0 -139 185 -139q109 0 190 37v333q-14 -35 -77.5 -56t-128 -31.5t-117 -46.5t-52.5 -97zM237 1316.5q-6 20.5 11.5 47.5t38 49.5t64.5 56t85 61.5t106 71q66 -43 107 -70t86 -60.5t65.5 -57t38 -50.5t11 -47.5t-23.5 -43t-56 -43 t-97 -40.5q53 78 -104 205l-27 20q-4 -2 -10 -7t-25.5 -21.5t-34 -31t-34 -38t-25.5 -42t-11 -43t11 -42.5q-57 20 -96 40.5t-56.5 43t-23.5 43z" />
<glyph unicode="&#xe3;" horiz-adv-x="1093" d="M86 297q0 106 57.5 176t142.5 100.5t173 50t162.5 47t97.5 70.5q0 139 -199 140q-143 0 -235 -55.5t-92 -176.5q-78 104 -78 199q0 84 69.5 138t155.5 73.5t182 19.5q225 0 343 -91t118 -259v-749q-66 33 -158 32q-49 0 -155.5 -18.5t-165.5 -18.5q-115 0 -204 28 t-151.5 103.5t-62.5 190.5zM243 1394q36 89 122 89q53 0 184 -47t192 -47q63 0 101 53q43 -66 12 -153t-125 -87q-55 0 -185 47t-190 47q-66 0 -102 -51q-45 60 -9 149zM350 301q0 -139 185 -139q109 0 190 37v333q-14 -35 -77.5 -56t-128 -31.5t-117 -46.5t-52.5 -97z" />
<glyph unicode="&#xe4;" horiz-adv-x="1093" d="M86 297q0 106 57.5 176t142.5 100.5t173 50t162.5 47t97.5 70.5q0 139 -199 140q-143 0 -235 -55.5t-92 -176.5q-78 104 -78 199q0 84 69.5 138t155.5 73.5t182 19.5q225 0 343 -91t118 -259v-749q-66 33 -158 32q-49 0 -155.5 -18.5t-165.5 -18.5q-115 0 -204 28 t-151.5 103.5t-62.5 190.5zM350 301q0 -139 185 -139q109 0 190 37v333q-14 -35 -77.5 -56t-128 -31.5t-117 -46.5t-52.5 -97zM242 1278v172h164q31 0 51.5 -19.5t20.5 -39.5v-170h-164q-33 0 -52.5 17t-19.5 40zM609 1278v172h163q31 0 51.5 -19.5t20.5 -39.5v-170h-164 q-33 0 -52 17t-19 40z" />
<glyph unicode="&#xe5;" horiz-adv-x="1093" d="M86 297q0 106 57.5 176t142.5 100.5t173 50t162.5 47t97.5 70.5q0 139 -199 140q-143 0 -235 -55.5t-92 -176.5q-78 104 -78 199q0 84 69.5 138t155.5 73.5t182 19.5q225 0 343 -91t118 -259v-749q-66 33 -158 32q-49 0 -155.5 -18.5t-165.5 -18.5q-115 0 -204 28 t-151.5 103.5t-62.5 190.5zM334 1323v98q0 61 57.5 98t151.5 37q96 0 152.5 -35.5t56.5 -99.5v-98q0 -63 -56.5 -98t-153 -35t-152.5 35t-56 98zM350 301q0 -139 185 -139q109 0 190 37v333q-14 -35 -77.5 -56t-128 -31.5t-117 -46.5t-52.5 -97zM473 1346q0 -25 13.5 -36.5 t54.5 -11.5q72 0 71 48v53q0 49 -71 49q-41 0 -54.5 -12.5t-13.5 -36.5v-53z" />
<glyph unicode="&#xe6;" horiz-adv-x="1699" d="M82 297q0 70 25.5 124t60.5 86t98.5 59.5t108.5 41t121 29.5q190 41 219 104q0 137 -199 138q-141 0 -234.5 -58.5t-93.5 -179.5q-78 115 -77 207q0 84 70.5 138t156.5 73.5t180 19.5q215 0 334 -84q115 84 319 84q213 0 323 -91t110 -249q0 -147 -100.5 -241.5 t-325.5 -94.5q-100 0 -193 37v-73q0 -186 227 -187q152 0 246 58.5t96 150.5q63 -90 64 -168q0 -111 -113.5 -178.5t-292.5 -67.5q-90 0 -161.5 15.5t-110.5 37t-64.5 42t-33.5 36.5l-8 15l-11 -16q-6 -9 -33.5 -34.5t-62.5 -45t-95.5 -35t-129.5 -15.5q-84 0 -156 16.5 t-133 52.5t-96 100.5t-35 152.5zM348 295q0 -127 182 -127q61 0 103.5 21.5t59 57.5t21.5 60.5t5 48.5v154q-23 -27 -88.5 -47.5t-126 -32.5t-108.5 -47t-48 -88zM985 629q92 -18 154 -19q199 0 198 129q0 145 -174 146q-100 0 -139 -48.5t-39 -148.5v-59z" />
<glyph unicode="&#xe7;" horiz-adv-x="1042" d="M104 336v383q0 168 122 264t341 96q90 0 173 -19.5t149.5 -75.5t66.5 -140q0 -88 -79 -203q0 117 -78 177.5t-185 60.5q-121 0 -183 -46.5t-62 -166.5v-277q0 -111 58 -161t181 -50q133 0 221.5 59.5t90.5 149.5q63 -94 63 -168q0 -100 -97.5 -165.5t-254.5 -76.5l-6 -53 l41 -4q88 -10 139 -61.5t51 -137.5q0 -90 -70.5 -145t-167.5 -55q-74 0 -121.5 34.5t-60 66.5t-12.5 56q53 -27 129 -26q47 0 79 20.5t32 61.5q0 78 -125 78l-119 -23q8 37 20 74l43 119q-178 18 -278.5 110t-100.5 244z" />
<glyph unicode="&#xe8;" horiz-adv-x="1083" d="M102 336v383q0 170 118 265t335 95q213 0 322.5 -91t109.5 -249q0 -147 -100.5 -241.5t-325.5 -94.5q-100 0 -192 37v-73q0 -186 227 -187q152 0 246 58.5t96 150.5q63 -90 63 -168q0 -111 -113.5 -178.5t-291.5 -67.5q-233 0 -363.5 95.5t-130.5 265.5zM369 629 q92 -18 153 -19q199 0 199 129q0 145 -174 146q-100 0 -139 -48.5t-39 -148.5v-59zM323.5 1405q-18.5 72 27.5 128t145 69q-25 -43 0.5 -88.5t103.5 -122.5l68 -68q72 -72 -78 -125l-47 -14l-121 90q-80 59 -98.5 131z" />
<glyph unicode="&#xe9;" horiz-adv-x="1083" d="M102 336v383q0 170 118 265t335 95q213 0 322.5 -91t109.5 -249q0 -147 -100.5 -241.5t-325.5 -94.5q-100 0 -192 37v-73q0 -186 227 -187q152 0 246 58.5t96 150.5q63 -90 63 -168q0 -111 -113.5 -178.5t-291.5 -67.5q-233 0 -363.5 95.5t-130.5 265.5zM369 629 q92 -18 153 -19q199 0 199 129q0 145 -174 146q-100 0 -139 -48.5t-39 -148.5v-59zM436 1323l68 68q78 78 103.5 123t0.5 88q98 -12 144.5 -68.5t28 -128.5t-98.5 -131l-121 -90l-78 26q-110 50 -47 113z" />
<glyph unicode="&#xea;" horiz-adv-x="1083" d="M102 336v383q0 170 118 265t335 95q213 0 322.5 -91t109.5 -249q0 -147 -100.5 -241.5t-325.5 -94.5q-100 0 -192 37v-73q0 -186 227 -187q152 0 246 58.5t96 150.5q63 -90 63 -168q0 -111 -113.5 -178.5t-291.5 -67.5q-233 0 -363.5 95.5t-130.5 265.5zM369 629 q92 -18 153 -19q199 0 199 129q0 145 -174 146q-100 0 -139 -48.5t-39 -148.5v-59zM248 1316.5q-6 20.5 11.5 47.5t38 49.5t64.5 56t85 61.5t106 71q66 -43 107 -70t86 -60.5t65.5 -57t38 -50.5t11 -47.5t-23.5 -43t-56 -43t-97 -40.5q53 78 -104 205l-27 20q-4 -2 -10 -7 t-25.5 -21.5t-34 -31t-34 -38t-25.5 -42t-11 -43t11 -42.5q-57 20 -96 40.5t-56.5 43t-23.5 43z" />
<glyph unicode="&#xeb;" horiz-adv-x="1083" d="M102 336v383q0 170 118 265t335 95q213 0 322.5 -91t109.5 -249q0 -147 -100.5 -241.5t-325.5 -94.5q-100 0 -192 37v-73q0 -186 227 -187q152 0 246 58.5t96 150.5q63 -90 63 -168q0 -111 -113.5 -178.5t-291.5 -67.5q-233 0 -363.5 95.5t-130.5 265.5zM252 1278v172 h164q31 0 51 -19.5t20 -39.5v-170h-163q-33 0 -52.5 17t-19.5 40zM369 629q92 -18 153 -19q199 0 199 129q0 145 -174 146q-100 0 -139 -48.5t-39 -148.5v-59zM618 1278v172h164q31 0 51.5 -19.5t20.5 -39.5v-170h-164q-33 0 -52.5 17t-19.5 40z" />
<glyph unicode="&#xec;" horiz-adv-x="512" d="M123 119v950q20 0 50 -3t86 -13.5t93 -41t37 -75.5v-950q-10 0 -28.5 1t-64.5 8t-81 19.5t-63.5 40t-28.5 64.5zM26.5 1405q-18.5 72 27.5 128t145 69q-25 -43 0.5 -88.5t103.5 -122.5l68 -68q72 -72 -78 -125l-47 -14l-121 90q-80 59 -98.5 131z" />
<glyph unicode="&#xed;" horiz-adv-x="512" d="M123 119v950q20 0 50 -3t86 -13.5t93 -41t37 -75.5v-950q-10 0 -28.5 1t-64.5 8t-81 19.5t-63.5 40t-28.5 64.5zM139 1323l68 68q78 78 103.5 123t0.5 88q98 -12 144.5 -68.5t28 -128.5t-98.5 -131l-121 -90l-78 26q-110 50 -47 113z" />
<glyph unicode="&#xee;" horiz-adv-x="512" d="M123 119v950q20 0 50 -3t86 -13.5t93 -41t37 -75.5v-950q-10 0 -28.5 1t-64.5 8t-81 19.5t-63.5 40t-28.5 64.5zM-49 1316.5q-6 20.5 11.5 47.5t38 49.5t64.5 56t85 61.5t106 71q66 -43 107 -70t86 -60.5t65.5 -57t38 -50.5t11 -47.5t-23.5 -43t-56 -43t-97 -40.5 q53 78 -104 205l-27 20q-4 -2 -10 -7t-25.5 -21.5t-34 -31t-34 -38t-25.5 -42t-11 -43t11 -42.5q-57 20 -96 40.5t-56.5 43t-23.5 43z" />
<glyph unicode="&#xef;" horiz-adv-x="512" d="M-45 1278v172h164q31 0 51 -19.5t20 -39.5v-170h-163q-33 0 -52.5 17t-19.5 40zM123 119v950q20 0 50 -3t86 -13.5t93 -41t37 -75.5v-950q-10 0 -28.5 1t-64.5 8t-81 19.5t-63.5 40t-28.5 64.5zM322 1278v172h163q31 0 51.5 -19.5t20.5 -39.5v-170h-164q-33 0 -52 17 t-19 40z" />
<glyph unicode="&#xf0;" horiz-adv-x="1193" d="M102 336v383q0 168 122 264t349 96q78 0 145.5 -17.5t86.5 -33.5q-33 125 -125 223l-250 -104q-74 135 2 168l109 45q-135 78 -273 74q12 72 59.5 109.5t110.5 37.5q178 0 338 -121l248 105q68 -141 -2 -170l-127 -54q197 -246 197 -596v-409q0 -172 -124 -266.5 t-370 -94.5q-248 0 -372 94.5t-124 266.5zM369 367q0 -102 47 -150.5t182 -48.5q133 0 180 48t47 151v358q0 74 -63.5 117t-171.5 43q-131 0 -176 -47t-45 -150v-321z" />
<glyph unicode="&#xf1;" horiz-adv-x="1169" d="M123 119v960q80 -43 184 -43q49 0 148.5 21.5t156.5 21.5q184 0 309.5 -77.5t125.5 -260.5v-755q-10 0 -29 1t-65 9t-80.5 20.5t-63.5 39t-29 63.5v592q0 84 -46 127t-150 43q-47 0 -95.5 -7.5t-74.5 -13.5l-25 -8v-866q-10 0 -28.5 1t-64.5 8t-81 19.5t-63.5 40 t-28.5 64.5zM277.5 1394q35.5 89 121.5 89q53 0 184.5 -47t192.5 -47q63 0 100 53q43 -66 12.5 -153t-124.5 -87q-55 0 -185.5 47t-189.5 47q-66 0 -102 -51q-45 60 -9.5 149z" />
<glyph unicode="&#xf2;" horiz-adv-x="1191" d="M102 336v383q0 172 123 266t371 94t371 -94t123 -266v-383q0 -172 -123 -266.5t-371 -94.5t-371 94.5t-123 266.5zM369 367q0 -102 47 -149.5t180 -47.5t180 47t47 150v321q0 102 -47 149.5t-180 47.5t-180 -47t-47 -150v-321zM366.5 1405q-18.5 72 27.5 128t145 69 q-25 -43 0.5 -88.5t103.5 -122.5l68 -68q72 -72 -78 -125l-47 -14l-121 90q-80 59 -98.5 131z" />
<glyph unicode="&#xf3;" horiz-adv-x="1191" d="M102 336v383q0 172 123 266t371 94t371 -94t123 -266v-383q0 -172 -123 -266.5t-371 -94.5t-371 94.5t-123 266.5zM369 367q0 -102 47 -149.5t180 -47.5t180 47t47 150v321q0 102 -47 149.5t-180 47.5t-180 -47t-47 -150v-321zM479 1323l68 68q78 78 103.5 123t0.5 88 q98 -12 144.5 -68.5t28 -128.5t-98.5 -131l-121 -90l-78 26q-110 50 -47 113z" />
<glyph unicode="&#xf4;" horiz-adv-x="1191" d="M102 336v383q0 172 123 266t371 94t371 -94t123 -266v-383q0 -172 -123 -266.5t-371 -94.5t-371 94.5t-123 266.5zM369 367q0 -102 47 -149.5t180 -47.5t180 47t47 150v321q0 102 -47 149.5t-180 47.5t-180 -47t-47 -150v-321zM291 1316.5q-6 20.5 11.5 47.5t38 49.5 t64.5 56t85 61.5t106 71q66 -43 107 -70t86 -60.5t65.5 -57t38 -50.5t11 -47.5t-23.5 -43t-56 -43t-97 -40.5q53 78 -104 205l-27 20q-4 -2 -10 -7t-25.5 -21.5t-34 -31t-34 -38t-25.5 -42t-11 -43t11 -42.5q-57 20 -96 40.5t-56.5 43t-23.5 43z" />
<glyph unicode="&#xf5;" horiz-adv-x="1191" d="M102 336v383q0 172 123 266t371 94t371 -94t123 -266v-383q0 -172 -123 -266.5t-371 -94.5t-371 94.5t-123 266.5zM296 1394q36 89 122 89q53 0 184 -47t193 -47q63 0 100 53q43 -66 12.5 -153t-125.5 -87q-55 0 -185 47t-189 47q-66 0 -103 -51q-45 60 -9 149zM369 367 q0 -102 47 -149.5t180 -47.5t180 47t47 150v321q0 102 -47 149.5t-180 47.5t-180 -47t-47 -150v-321z" />
<glyph unicode="&#xf6;" horiz-adv-x="1191" d="M102 336v383q0 172 123 266t371 94t371 -94t123 -266v-383q0 -172 -123 -266.5t-371 -94.5t-371 94.5t-123 266.5zM369 367q0 -102 47 -149.5t180 -47.5t180 47t47 150v321q0 102 -47 149.5t-180 47.5t-180 -47t-47 -150v-321zM295 1278v172h164q31 0 51.5 -19.5 t20.5 -39.5v-170h-164q-33 0 -52.5 17t-19.5 40zM662 1278v172h163q31 0 51.5 -19.5t20.5 -39.5v-170h-164q-33 0 -52 17t-19 40z" />
<glyph unicode="&#xf7;" horiz-adv-x="1067" d="M124 492.5q1 35.5 11 63.5t38 50.5t73 22.5h690q2 -8 4 -22.5t1 -50.5t-9 -63.5t-37 -50t-74 -22.5h-692q-2 8 -4 22.5t-1 50zM420 109v192h168q31 0 55.5 -19.5t24.5 -43.5v-193h-166q-33 0 -57.5 18.5t-24.5 45.5zM420 807v192h168q31 0 55.5 -19t24.5 -44v-193h-166 q-33 0 -57.5 18.5t-24.5 45.5z" />
<glyph unicode="&#xf8;" horiz-adv-x="1191" d="M51 86q6 27 31 51l49 47q-29 70 -29 152v383q0 172 123 266t371 94q240 0 365 -90l108 107q4 -4 12.5 -11.5t23.5 -28t22.5 -41t1 -49t-30.5 -53.5l-41 -39q33 -66 33 -155v-383q0 -172 -123 -266.5t-371 -94.5q-252 0 -375 99l-108 -105q-4 4 -12.5 10.5t-24 25 t-23.5 36.5t-2 45zM369 414l419 409q-49 61 -192 62q-133 0 -180 -47t-47 -150v-274zM395 240q47 -70 201 -70q133 0 180 47t47 150v282z" />
<glyph unicode="&#xf9;" horiz-adv-x="1169" d="M123 313v756q10 0 28.5 -1t64.5 -9t81 -20.5t63.5 -39t28.5 -63.5v-592q0 -84 46 -127t151 -43q47 0 95 7t73 16l26 6v866q10 0 28.5 -1t65 -8t81 -19.5t63.5 -40t29 -64.5v-961q-80 43 -185 43q-49 0 -148.5 -21.5t-156.5 -21.5q-184 0 -309 78t-125 260zM348.5 1405 q-18.5 72 27.5 128t145 69q-25 -43 0.5 -88.5t103.5 -122.5l68 -68q72 -72 -78 -125l-47 -14l-121 90q-80 59 -98.5 131z" />
<glyph unicode="&#xfa;" horiz-adv-x="1169" d="M123 313v756q10 0 28.5 -1t64.5 -9t81 -20.5t63.5 -39t28.5 -63.5v-592q0 -84 46 -127t151 -43q47 0 95 7t73 16l26 6v866q10 0 28.5 -1t65 -8t81 -19.5t63.5 -40t29 -64.5v-961q-80 43 -185 43q-49 0 -148.5 -21.5t-156.5 -21.5q-184 0 -309 78t-125 260zM461 1323 l67 68q78 78 103.5 123t1.5 88q98 -12 144 -68.5t27.5 -128.5t-97.5 -131l-121 -90l-78 26q-110 50 -47 113z" />
<glyph unicode="&#xfb;" horiz-adv-x="1169" d="M123 313v756q10 0 28.5 -1t64.5 -9t81 -20.5t63.5 -39t28.5 -63.5v-592q0 -84 46 -127t151 -43q47 0 95 7t73 16l26 6v866q10 0 28.5 -1t65 -8t81 -19.5t63.5 -40t29 -64.5v-961q-80 43 -185 43q-49 0 -148.5 -21.5t-156.5 -21.5q-184 0 -309 78t-125 260zM272 1316.5 q-6 20.5 11.5 47.5t38 49.5t64.5 56t85 61.5t106 71q66 -43 107 -70t86 -60.5t65.5 -57t38 -50.5t11 -47.5t-23.5 -43t-56 -43t-97 -40.5q53 78 -104 205l-27 20q-4 -2 -10 -7t-25.5 -21.5t-34 -31t-34 -38t-25.5 -42t-11 -43t11 -42.5q-57 20 -96 40.5t-56.5 43t-23.5 43z " />
<glyph unicode="&#xfc;" horiz-adv-x="1169" d="M123 313v756q10 0 28.5 -1t64.5 -9t81 -20.5t63.5 -39t28.5 -63.5v-592q0 -84 46 -127t151 -43q47 0 95 7t73 16l26 6v866q10 0 28.5 -1t65 -8t81 -19.5t63.5 -40t29 -64.5v-961q-80 43 -185 43q-49 0 -148.5 -21.5t-156.5 -21.5q-184 0 -309 78t-125 260zM276 1278v172 h164q31 0 51.5 -19.5t20.5 -39.5v-170h-164q-33 0 -52.5 17t-19.5 40zM643 1278v172h164q31 0 51.5 -19.5t20.5 -39.5v-170h-164q-33 0 -52.5 17t-19.5 40z" />
<glyph unicode="&#xfd;" horiz-adv-x="1091" d="M63 1069q10 0 28 -1t62 -9t78.5 -23.5t67.5 -50.5t39 -82l41 -276q10 -72 32.5 -133.5t46 -100.5t47 -66.5t37 -39t15.5 -11.5l14 13q14 12 39 40.5t49.5 67.5t47 100.5t30.5 129.5l37 274q10 74 80 116t133 48l66 4l-45 -405q-20 -182 -115.5 -331t-208.5 -235l-80 -61 q-80 -63 -122 -102t-76.5 -98.5t-34.5 -125.5q0 -86 43 -178q-53 -29 -109 -29q-80 0 -134 57.5t-54 172.5q0 127 71.5 215t212.5 192q-104 61 -189 207t-103 316zM441 1323l67 68q78 78 103.5 123t1.5 88q98 -12 144 -68.5t27.5 -128.5t-98.5 -131l-121 -90l-77 26 q-110 50 -47 113z" />
<glyph unicode="&#xfe;" horiz-adv-x="1148" d="M123 -352v1917q23 0 51.5 -2t84.5 -13.5t93 -47.5t37 -91v-289l-12 -118q8 8 27.5 20t86 33.5t146.5 21.5q170 0 290 -97t120 -257v-395q0 -160 -120 -257.5t-290 -97.5q-174 2 -260 80q12 -86 12 -123v-438q-27 0 -52.5 3t-83.5 14.5t-94 46.5t-36 90zM389 340 q0 -74 67.5 -122t153.5 -48q78 0 124 47t46 143v334q0 96 -46 143.5t-124 47.5q-86 0 -153.5 -49.5t-67.5 -120.5v-375z" />
<glyph unicode="&#xff;" horiz-adv-x="1091" d="M63 1069q10 0 28 -1t62 -9t78.5 -23.5t67.5 -50.5t39 -82l41 -276q10 -72 32.5 -133.5t46 -100.5t47 -66.5t37 -39t15.5 -11.5l14 13q14 12 39 40.5t49.5 67.5t47 100.5t30.5 129.5l37 274q10 74 80 116t133 48l66 4l-45 -405q-20 -182 -115.5 -331t-208.5 -235l-80 -61 q-80 -63 -122 -102t-76.5 -98.5t-34.5 -125.5q0 -86 43 -178q-53 -29 -109 -29q-80 0 -134 57.5t-54 172.5q0 127 71.5 215t212.5 192q-104 61 -189 207t-103 316zM256 1278v172h164q31 0 51.5 -19.5t20.5 -39.5v-170h-164q-33 0 -52.5 17t-19.5 40zM623 1278v172h163 q31 0 51.5 -19.5t20.5 -39.5v-170h-164q-33 0 -52 17t-19 40z" />
<glyph unicode="&#x131;" horiz-adv-x="512" d="M123 119v950q20 0 50 -3t86 -13.5t93 -41t37 -75.5v-950q-10 0 -28.5 1t-64.5 8t-81 19.5t-63.5 40t-28.5 64.5z" />
<glyph unicode="&#x152;" horiz-adv-x="1761" d="M123 485v494q0 233 153.5 359t462.5 126h951q0 -8 -1 -21t-9.5 -49t-23 -62.5t-46 -48t-74.5 -21.5h-475v-379h319q78 0 135.5 8t73.5 16l19 8q0 -236 -195 -235h-352v-477h629q0 -16 -4.5 -39t-16.5 -66t-47 -70.5t-86 -27.5h-526h-2h-269q-309 0 -462.5 126t-153.5 359 zM397 512q0 -160 70 -234.5t270 -74.5h49v1057q-16 2 -49 2q-201 0 -270.5 -75t-69.5 -235v-440z" />
<glyph unicode="&#x153;" horiz-adv-x="1804" d="M102 336v383q0 172 123 266t371 94q272 0 356 -106q78 106 324 106q213 0 322.5 -91t109.5 -249q0 -147 -100.5 -241.5t-325.5 -94.5q-100 0 -192 37v-73q0 -186 227 -187q152 0 246 58.5t96 150.5q63 -90 63 -168q0 -111 -113.5 -178.5t-291.5 -67.5q-266 0 -356 111 q-88 -111 -365 -111q-248 0 -371 94.5t-123 266.5zM369 367q0 -102 47 -149.5t180 -47.5q127 0 175 43t52 135v359q-4 90 -52 134t-175 44q-133 0 -180 -47t-47 -150v-321zM1090 629q92 -18 153 -19q199 0 199 129q0 145 -174 146q-100 0 -139 -48.5t-39 -148.5v-59z" />
<glyph unicode="&#x178;" horiz-adv-x="1277" d="M4 1458q74 18 125 19q166 0 231 -134l95 -190q129 -264 184 -334q23 29 47.5 72t39.5 73.5t47 93t44 87.5l101 198q68 133 231 134q18 0 50 -5.5t54 -9.5l21 -6q-57 -94 -141 -273t-168 -322.5t-189 -250.5v-630q-10 0 -29.5 1t-66.5 8t-83 19t-65.5 40t-29.5 65v497 q-109 109 -191 253.5t-160.5 317.5t-146.5 277zM324 1655v172h164q31 0 51.5 -19.5t20.5 -39.5v-170h-164q-33 0 -52.5 17t-19.5 40zM691 1655v172h163q31 0 51.5 -19.5t20.5 -39.5v-170h-164q-33 0 -52 17t-19 40z" />
<glyph unicode="&#x2c6;" horiz-adv-x="1001" d="M221 1316.5q-6 20.5 11.5 47.5t38 49.5t64.5 56t85 61.5t106 71q66 -43 107 -70t86 -60.5t65.5 -57t38 -50.5t11 -47.5t-23.5 -43t-56 -43t-97 -40.5q53 78 -104 205l-27 20q-4 -2 -10 -7t-25.5 -21.5t-34 -31t-34 -38t-25.5 -42t-11 -43t11 -42.5q-57 20 -96 40.5 t-56.5 43t-23.5 43z" />
<glyph unicode="&#x2dc;" horiz-adv-x="796" d="M101.5 1394q35.5 89 121.5 89q53 0 184.5 -47t192.5 -47q63 0 100 53q43 -66 12.5 -153t-124.5 -87q-55 0 -185.5 47t-189.5 47q-66 0 -102 -51q-45 60 -9.5 149z" />
<glyph unicode="&#x2000;" horiz-adv-x="989" />
<glyph unicode="&#x2001;" horiz-adv-x="1978" />
<glyph unicode="&#x2002;" horiz-adv-x="989" />
<glyph unicode="&#x2003;" horiz-adv-x="1978" />
<glyph unicode="&#x2004;" horiz-adv-x="659" />
<glyph unicode="&#x2005;" horiz-adv-x="493" />
<glyph unicode="&#x2006;" horiz-adv-x="329" />
<glyph unicode="&#x2007;" horiz-adv-x="329" />
<glyph unicode="&#x2008;" horiz-adv-x="245" />
<glyph unicode="&#x2009;" horiz-adv-x="395" />
<glyph unicode="&#x200a;" horiz-adv-x="108" />
<glyph unicode="&#x2010;" horiz-adv-x="1005" d="M124 494.5q1 33.5 9 59.5t32.5 47.5t65.5 21.5h643q2 -8 4.5 -21.5t2.5 -47.5t-8.5 -59.5t-33 -47t-65.5 -21.5h-645q-2 8 -4 21.5t-1 47z" />
<glyph unicode="&#x2011;" horiz-adv-x="1005" d="M124 494.5q1 33.5 9 59.5t32.5 47.5t65.5 21.5h643q2 -8 4.5 -21.5t2.5 -47.5t-8.5 -59.5t-33 -47t-65.5 -21.5h-645q-2 8 -4 21.5t-1 47z" />
<glyph unicode="&#x2012;" horiz-adv-x="1005" d="M124 494.5q1 33.5 9 59.5t32.5 47.5t65.5 21.5h643q2 -8 4.5 -21.5t2.5 -47.5t-8.5 -59.5t-33 -47t-65.5 -21.5h-645q-2 8 -4 21.5t-1 47z" />
<glyph unicode="&#x2013;" horiz-adv-x="1495" d="M42 492.5q1 35.5 11 63.5t38 50.5t73 22.5h1282q2 -8 4 -22.5t1 -50.5t-9 -63.5t-37 -50t-74 -22.5h-1284q-2 8 -4 22.5t-1 50z" />
<glyph unicode="&#x2014;" horiz-adv-x="1693" d="M42 492.5q1 35.5 11 63.5t38 50.5t73 22.5h1481q2 -8 4 -22.5t1 -50.5t-9.5 -63.5t-37 -50t-73.5 -22.5h-1483q-2 8 -4 22.5t-1 50z" />
<glyph unicode="&#x2018;" horiz-adv-x="524" d="M127 1055v112q0 145 42 221t150 76q76 0 130 -43q-51 -12 -77 -59t-24 -91t4 -77l37 -217h-67h-107q-88 0 -88 78z" />
<glyph unicode="&#x2019;" horiz-adv-x="524" d="M76 1020q51 12 76.5 59t23.5 91t-4 77l-37 217h68h106q88 0 88 -78v-112q0 -145 -42 -221t-150 -76q-76 0 -129 43z" />
<glyph unicode="&#x201a;" horiz-adv-x="524" d="M76 -188q51 12 76.5 59t23.5 91t-4 77l-37 217h68h106q88 0 88 -78v-112q0 -145 -42 -221t-150 -76q-76 0 -129 43z" />
<glyph unicode="&#x201c;" horiz-adv-x="894" d="M127 1055v112q0 145 42 221t150 76q76 0 130 -43q-51 -12 -77 -59t-24 -91t4 -77l37 -217h-67h-107q-88 0 -88 78zM498 1055v112q0 145 42 221t150 76q76 0 129 -43q-51 -12 -76.5 -59t-23.5 -91t4 -77l37 -217h-68h-106q-88 0 -88 78z" />
<glyph unicode="&#x201d;" horiz-adv-x="894" d="M76 1020q51 12 76.5 59t23.5 91t-4 77l-37 217h68h106q88 0 88 -78v-112q0 -145 -42 -221t-150 -76q-76 0 -129 43zM446 1020q51 12 77 59t24 91t-4 77l-37 217h67h107q88 0 88 -78v-112q0 -145 -42 -221t-151 -76q-76 0 -129 43z" />
<glyph unicode="&#x201e;" horiz-adv-x="894" d="M76 -188q51 12 76.5 59t23.5 91t-4 77l-37 217h68h106q88 0 88 -78v-112q0 -145 -42 -221t-150 -76q-76 0 -129 43zM446 -188q51 12 77 59t24 91t-4 77l-37 217h67h107q88 0 88 -78v-112q0 -145 -42 -221t-151 -76q-76 0 -129 43z" />
<glyph unicode="&#x2022;" horiz-adv-x="997" d="M102 426v199q0 291 396 290q397 0 397 -290v-199q0 -139 -98.5 -216t-298.5 -77q-396 0 -396 293z" />
<glyph unicode="&#x2026;" horiz-adv-x="1505" d="M127 63v193h168q31 0 55.5 -19.5t24.5 -43.5v-193h-166q-33 0 -57.5 18t-24.5 45zM629 63v193h168q31 0 55.5 -19.5t24.5 -43.5v-193h-166q-33 0 -57.5 18t-24.5 45zM1130 63v193h168q31 0 55.5 -19.5t24.5 -43.5v-193h-166q-33 0 -57.5 18t-24.5 45z" />
<glyph unicode="&#x202f;" horiz-adv-x="395" />
<glyph unicode="&#x2039;" horiz-adv-x="874" d="M162 408q-115 115 2 231l411 412q190 -117 95 -213l-314 -316l375 -375q-33 -66 -102.5 -95t-130.5 20z" />
<glyph unicode="&#x203a;" horiz-adv-x="874" d="M143 147l375 375l-313 316q-96 96 94 213l412 -412q117 -117 2 -231l-336 -336q-61 -49 -131 -20t-103 95z" />
<glyph unicode="&#x205f;" horiz-adv-x="493" />
<glyph unicode="&#x20ac;" horiz-adv-x="1318" d="M123 479v506q0 135 46 235.5t128 158t186.5 84t231.5 26.5q92 0 182 -19.5t166 -76t76 -140.5q0 -88 -80 -202q0 78 -61.5 131t-135.5 73.5t-147 20.5q-156 0 -235 -67.5t-83 -231.5h643q0 -8 -1 -20.5t-11 -45t-28.5 -57.5t-58.5 -45.5t-95 -20.5h-449v-139h521 q0 -8 -1.5 -20.5t-11.5 -45t-28.5 -57t-58.5 -45t-95 -20.5h-324q23 -274 316 -275q143 0 269 57.5t128 143.5q63 -94 64 -168q0 -109 -138.5 -176.5t-322.5 -67.5q-256 0 -424 122t-168 382z" />
<glyph unicode="&#x2122;" horiz-adv-x="2244" d="M82 1225v239h846v-239q0 -78 -146 -111l-16 -4v186h-143v-645q-10 0 -25.5 1t-56.5 6.5t-73 15.5t-57.5 31.5t-25.5 50.5v540h-139v-186q-18 2 -46 9t-73 37t-45 69zM1051 756v708h137q109 -2 166 -86l219 -323l272 409h72q6 0 18.5 -1t42 -6t53 -15t42 -31.5t18.5 -50.5 v-709q-10 0 -25.5 1t-56.5 6.5t-72.5 15.5t-57.5 31.5t-26 50.5v315l-206 -295q-16 0 -44 4t-85.5 26.5t-83.5 57.5l-146 195v-408q-10 0 -25.5 1t-56.5 6.5t-72.5 15.5t-57 31.5t-25.5 50.5z" />
<glyph unicode="&#xe000;" horiz-adv-x="1070" d="M0 1070h1070v-1070h-1070v1070z" />
<glyph unicode="&#xfb01;" horiz-adv-x="1257" d="M123 119v1149q0 162 150.5 261t359.5 99q178 0 299 -49t142.5 -136t-101.5 -210q-2 94 -112.5 142t-227.5 48q-98 0 -171 -49t-73 -137v-385h244q98 0 166.5 56.5t68.5 125.5v35q20 0 49 -3t86.5 -13.5t94.5 -41t37 -75.5v-950q-10 0 -29 1t-65 8t-80.5 19.5t-63.5 40 t-29 64.5v608q-8 -8 -23.5 -21.5t-75.5 -35t-136 -21.5h-244v-663q-10 0 -28.5 1t-64.5 8t-81 19.5t-63.5 40t-28.5 64.5z" />
<glyph unicode="&#xfb02;" horiz-adv-x="1257" d="M123 119v1149q0 162 147.5 261t341.5 99q55 0 137 -12t168.5 -33.5t146.5 -62.5t60 -88v-1059q0 -59 3 -97t15.5 -93.5t44.5 -85t83 -29.5q-61 -82 -170 -82q-119 0 -180.5 91t-61.5 230v1059q-84 57 -235 57q-100 0 -167 -55t-67 -145v-217h346q0 -8 -1 -21.5t-9 -49.5 t-23.5 -62.5t-46 -48t-73.5 -21.5h-193v-817q-10 0 -28.5 1t-64.5 8t-81 19.5t-63.5 40t-28.5 64.5z" />
<glyph unicode="&#xfb03;" horiz-adv-x="2002" d="M123 119v1067q0 162 138 261t331 99q236 0 330 -110q63 90 187 141t269 51q178 0 299 -49t142.5 -136t-101.5 -210q-2 94 -112.5 142t-227.5 48q-98 0 -170.5 -49t-72.5 -137v-385h243q98 0 167 56.5t69 125.5v35q20 0 49 -3t86 -13.5t94 -41t37 -75.5v-950 q-10 0 -28.5 1t-64.5 8t-81 19.5t-63.5 40t-28.5 64.5v606q-76 -76 -236 -76h-243v-663q-10 0 -29 1t-65 8t-80.5 19.5t-63.5 40t-29 64.5v530h-479v-663q-10 0 -28.5 1t-64.5 8t-81 19.5t-63.5 40t-28.5 64.5zM389 852h479v319q-6 92 -82.5 131t-183.5 39q-98 0 -155.5 -54 t-57.5 -146v-289z" />
<glyph unicode="&#xfb04;" horiz-adv-x="2002" d="M123 119v1067q0 162 138 261t331 99q236 0 330 -110q61 92 182 142t258 50q170 0 339 -57.5t169 -138.5v-1059q0 -59 3 -97t15.5 -93.5t44 -85t82.5 -29.5q-61 -82 -170 -82q-119 0 -180 91t-61 230v1059q-84 57 -236 57q-100 0 -166.5 -55t-66.5 -145v-217h346 q0 -8 -1 -21.5t-9.5 -49.5t-23.5 -62.5t-46 -48t-74 -21.5h-192v-817q-10 0 -29 1t-65 8t-80.5 19.5t-63.5 40t-29 64.5v684h-479v-817q-10 0 -28.5 1t-64.5 8t-81 19.5t-63.5 40t-28.5 64.5zM389 1006h479v165q-6 92 -82.5 131t-183.5 39q-98 0 -155.5 -54t-57.5 -146v-135 z" />
<glyph horiz-adv-x="573" />
</font>
</defs>
</svg>
